<svg width="226" height="233" viewBox="0 0 226 233" fill="none" xmlns="http://www.w3.org/2000/svg">
<path d="M55.42 222.979C54.8643 223.094 54.9331 222.771 55.2067 221.247C55.7108 218.439 55.8335 215.6 56.3378 212.798C57.2851 207.533 57.3971 202.231 58.1361 196.962C58.6858 193.044 60 188.884 60 185" stroke="#211D42" stroke-width="2" stroke-linecap="round" stroke-linejoin="round"/>
<path d="M7.63312 109.9C7.63312 106.396 6.45898 114.172 6.34689 115.316C5.91472 119.727 4.63356 123.989 3.97312 128.344C2.81366 135.99 1.5004 143.506 1.5004 151.278C1.5004 166.539 -0.539775 182.95 3.61885 197.838C5.18647 203.45 9.49998 206.83 15.38 206.994C22.1259 207.182 27.1349 202.865 33.1602 200.566C39.6896 198.075 45.4231 193.472 51.5915 190.236C52.8655 189.567 63 184.591 63 183.562" stroke="#211D42" stroke-width="2" stroke-linecap="round" stroke-linejoin="round"/>
<path d="M8 110C8 111.298 17.6212 112.213 18.9596 112.401C20.5185 112.62 27 112.521 27 113" stroke="#211D42" stroke-width="2" stroke-linecap="round" stroke-linejoin="round"/>
<path d="M27 114.034C27 103.932 26.1967 134.221 26.1967 144.323C26.1967 149.112 26.1967 153.9 26.1967 158.688C26.1967 161.527 25.7368 165.228 26.2235 168" stroke="#211D42" stroke-width="2" stroke-linecap="round" stroke-linejoin="round"/>
<path d="M23.2403 169.401C23.1577 170.169 22.3855 170.361 24.1365 168.991C26.2941 167.303 28.8338 166.141 30.9595 164.461C34.4089 161.733 38.1485 159.193 42.0639 157.231C48.4416 154.037 53.1792 148.578 59.1422 144.894C64.3264 141.692 68.5251 138.071 74.2022 135.78C76.7627 134.747 81 132.149 81 129" stroke="#211D42" stroke-width="2" stroke-linecap="round" stroke-linejoin="round"/>
<path d="M8.50815 109.255C8.50815 109.521 8 110.115 8 109.209C8 107.825 8.45722 106.684 8.73884 105.34C9.30337 102.647 9.86367 100.317 10.7755 97.6764C12.5795 92.4522 15.4474 88.5445 18.6184 84.0862C21.304 80.3101 23.8331 77.7267 27.9982 75.4717C31.4723 73.5909 29.4816 77.825 29.0786 79.5758C28.5306 81.9566 26.6662 85.173 24.9844 86.946C23.5409 88.4678 20.8432 91.6394 24.5657 88.4789C26.7977 86.5838 31.1465 87.3559 33.7972 87.4484C35.7665 87.5171 38.0335 91.0765 35.0514 91.0765C33.9255 91.0765 32.8091 91.1145 31.6795 91.1145C29.7644 91.1145 33.4498 91.5632 34.1767 91.7814C35.8149 92.2734 38.5386 95.8064 35.5644 95.8064C34.3182 95.8064 33.0431 95.6924 31.8242 95.6924C30.0992 95.6924 30.0713 95.2315 31.6581 95.7304C33.5042 96.3107 38.2865 96.9717 36.6727 100.109C35.8713 101.667 31.4176 100.888 29.7489 100.888C27.4291 100.888 36.0041 101.48 36.0645 103.756C36.1452 106.796 32.3065 106.843 29.6521 106.843C28.2946 106.843 26.4575 107.713 25.3828 108.467C24.8762 108.822 22.7243 112 23.4768 112" stroke="#211D42" stroke-width="2" stroke-linecap="round" stroke-linejoin="round"/>
<path d="M110.663 125C109.123 125.206 113.545 126.113 114.306 127.131C116.756 130.412 112.126 131.924 109.649 133.195C102.695 136.761 94.333 136.952 87.8526 141.765C79.3933 148.048 77.2364 163.278 75.7731 173.129C74.425 182.206 74.011 191.127 74.011 200.304C74.011 206.566 73.848 212.768 74.7751 218.994C75.387 223.104 76.96 227.901 76.96 232" stroke="#211D42" stroke-width="2" stroke-linecap="round" stroke-linejoin="round"/>
<path d="M92.6775 137.469C92.6775 138.997 93.511 136.775 92.4981 136.45C91.427 136.106 90.7085 135.62 89.7401 135.136C87.8999 134.216 86.1952 133.024 84.4312 132.005C81.5236 130.326 80.7337 125 84.8144 125" stroke="#211D42" stroke-width="2" stroke-linecap="round" stroke-linejoin="round"/>
<path d="M88 119.551C87.6523 116.843 86.5845 124.851 85.981 127.521C85.7595 128.502 85.6302 129.545 85.5658 130.543C85.5526 130.747 84.7889 132 85.057 132" stroke="#211D42" stroke-width="2" stroke-linecap="round" stroke-linejoin="round"/>
<path d="M108 120C108 124.373 108 137.493 108 133.12" stroke="#211D42" stroke-width="2" stroke-linecap="round" stroke-linejoin="round"/>
<path d="M127.871 80.4964C127.871 76.3873 128.56 89.0735 126.754 92.7742C124.315 97.7739 123.743 102.848 120.233 107.478C113.552 116.291 103.355 123.738 91.8961 117.96C82.4805 113.213 76.3453 104.333 74.8977 93.7927C74.098 87.9691 73.7043 70.3214 74.2588 76.1728" stroke="#211D42" stroke-width="2" stroke-linecap="round" stroke-linejoin="round"/>
<path d="M129 72.5676C129 69.7516 130 78.184 130 81" stroke="#211D42" stroke-width="2" stroke-linecap="round" stroke-linejoin="round"/>
<path d="M129.684 81C130.812 81 128.571 78.9139 128.379 78.8098C127.27 78.2099 125.477 77.7457 124.211 77.5036C121.166 76.9212 118.105 76.7838 115.044 76.2091C112.391 75.711 108.563 75.2194 107.114 72.5237C106.126 70.6849 106 64.341 106 66.4098" stroke="#211D42" stroke-width="2" stroke-linecap="round" stroke-linejoin="round"/>
<path d="M129.131 72.9391C133.273 72.9391 121.479 69.5727 117.411 68.788C111.018 67.5548 105.027 65.9521 98.5225 65.1512C93.47 64.5292 85.6095 65.8552 81.2598 68.5935C79.2565 69.8547 75.452 71.0372 74.0818 73.0946C73.2466 74.3488 71.32 75.6491 69.9751 76.2733C67.7582 77.3021 67.145 80.8423 69.5053 81.8862C71.1075 82.5948 72.497 79.7781 73.8679 79.386C75.8175 78.8284 77.5992 77.5616 79.594 77.0728C84.4618 75.8802 89.6106 77.7135 94.5076 77.7135C97.1675 77.7135 100.834 76.5331 102.861 74.7963C103.829 73.9678 109.248 68.5076 107.053 67.0366" stroke="#211D42" stroke-width="2" stroke-linecap="round" stroke-linejoin="round"/>
<path d="M99.6758 89C99.6549 89 100.017 92.6725 99.7831 93.1711C99.2962 94.2095 97.8059 95.0544 97.1822 96.2334C95.3886 99.6236 95.1417 103 100 103" stroke="#211D42" stroke-width="2" stroke-linecap="round" stroke-linejoin="round"/>
<path d="M108 107.229C108 106.086 107.225 109.561 106.258 110.211C104.964 111.081 103.257 112 101.652 112C100.341 112 98.8451 111.578 97.7416 110.857C97.0606 110.411 96.885 109.035 96 109.035" stroke="#211D42" stroke-width="2" stroke-linecap="round" stroke-linejoin="round"/>
<path d="M88 89.8698C87.8115 89.8862 87.9311 92.2879 87.9311 92.6188C87.9311 93.7554 86.1006 92.0566 86.024 91.3399C85.7916 89.1631 87.3222 87.6978 87.3222 90.6945" stroke="#211D42" stroke-width="2" stroke-linecap="round" stroke-linejoin="round"/>
<path d="M113.857 89.1821C113.764 88.2728 113.864 91.0182 113.971 91.9253C114.075 92.8111 113.915 93.5656 113.28 92.416C112.431 90.8786 113.777 89.5131 113.826 90.313" stroke="#211D42" stroke-width="2" stroke-linecap="round" stroke-linejoin="round"/>
<path d="M122 88C122 84.4285 112.661 84.8802 111 85.2362" stroke="#211D42" stroke-width="2" stroke-linecap="round" stroke-linejoin="round"/>
<path d="M93.7643 84.9565C95.2309 84.9565 89.4217 83.0315 88.1926 83.0315C86.8819 83.0315 79 82.5914 79 85" stroke="#211D42" stroke-width="2" stroke-linecap="round" stroke-linejoin="round"/>
<path d="M128.869 88.1881C128.869 87.4556 132.69 89.0865 132.919 89.2699C135.158 91.0646 135.747 94.1879 133.912 96.3356C132.126 98.4259 130.191 99.774 127.578 100.552C126.573 100.851 124.834 100.648 124 101" stroke="#211D42" stroke-width="2" stroke-linecap="round" stroke-linejoin="round"/>
<path d="M77 101C73.6062 101 69.8887 100.234 68.0618 96.5802C67.1854 94.8275 66.62 92.3463 67.3036 90.4851C67.9902 88.6155 74.7851 87.1178 75.3347 88.6041" stroke="#211D42" stroke-width="2" stroke-linecap="round" stroke-linejoin="round"/>
<path d="M131.087 69.2892C131.087 69.8814 131.35 72.6506 130.913 73C130.902 73.0091 131.212 66.4513 131.372 65.5232C131.94 62.2331 132.046 58.5816 133.031 55.3881C133.685 53.2664 133.091 50.2417 134.032 48.2873C134.942 46.3978 135.319 46.2344 137.324 46.2344C141.002 46.2344 144.695 44.662 147.421 42.0467C155.289 34.4962 156.472 19.8746 148.941 11.5194C143.345 5.31139 135.821 3.37401 127.987 6.41199C124.382 7.80993 120.353 9.95913 117.334 12.3987C115.594 13.8055 114.093 15.343 112.505 16.9092C111.39 18.0086 110.424 21.0696 109 21.4017" stroke="#211D42" stroke-width="2" stroke-linecap="round" stroke-linejoin="round"/>
<path d="M119 8.13012C119 10.2705 117.242 7.02037 116.09 6.17533C112.059 3.21834 108.894 1.98467 104.006 1.16595C98.8527 0.30286 95.198 2.94188 91.1984 5.94447C86.6679 9.34561 81 13.5309 81 20" stroke="#211D42" stroke-width="2" stroke-linecap="round" stroke-linejoin="round"/>
<path d="M87.4633 7.15721C89.2434 7.15721 86.0607 6.17826 85.6378 6.06448C82.8742 5.32076 80.209 5 77.3502 5C73.1661 5 67.8626 6.801 64.2261 8.83295C56.5572 13.118 52.3096 19.2367 50.5063 27.657C48.9602 34.8764 47.391 40.5508 52.4566 46.7616C54.532 49.3061 58.8873 50 62.0487 50C65.0518 50 66.29 48.319 68.3948 46.5355C70.1925 45.0122 76.6182 38.6616 74.4736 35.9452" stroke="#211D42" stroke-width="2" stroke-linecap="round" stroke-linejoin="round"/>
<path d="M70 49.5864C69.9192 49.5161 69.3632 47.3392 69.2471 48.2019C69.1071 49.2415 69.1535 50.3583 69.1535 51.4064C69.1535 55.2227 69.4467 59.1322 69.0944 62.9328C68.6776 67.4312 69.7759 71.6578 69.7759 76" stroke="#211D42" stroke-width="2" stroke-linecap="round" stroke-linejoin="round"/>
<path d="M133 56.7898C133 57.7062 131.756 55.3621 130.978 54.8189C129.766 53.9741 128.547 53.187 127.215 52.5175C124.33 51.0669 121.197 49.3355 117.968 48.6896C111.342 47.3639 103.95 46.2453 97.1871 47.6485C94.2855 48.2504 91.506 49.5509 88.6121 50.2226C85.7888 50.8778 82.806 50.8 80.0164 51.4854C77.9213 52.0002 75.9016 52.8889 73.9155 53.6513C72.4493 54.2142 67.7387 54.7761 69.3206 54.7761" stroke="#211D42" stroke-width="2" stroke-linecap="round" stroke-linejoin="round"/>
<path d="M125.11 34.1474C125.11 33.3564 125.91 35.9954 125.939 36.2457C126.403 40.3096 124.146 43.6433 122 47" stroke="#211D42" stroke-width="2" stroke-linecap="round" stroke-linejoin="round"/>
<path d="M112.57 40.1707C112.609 39.7434 113.526 40.2316 113.611 40.4091C114.696 42.6751 113.301 46.2987 112 48" stroke="#211D42" stroke-width="2" stroke-linecap="round" stroke-linejoin="round"/>
<path d="M191.667 110.831C191.667 96.7813 194 138.866 194 152.916C194 166.946 194.129 182.538 186.322 194.866C183.511 199.304 181.986 202.645 176.074 202.976C169.045 203.369 163.783 198.936 157.646 196.423C153.901 194.889 150.294 193.528 146.807 191.251C144.24 189.574 141.45 188.213 138.626 187.068C135.622 185.85 128.619 182.682 127 179.8" stroke="#211D42" stroke-width="2" stroke-linecap="round" stroke-linejoin="round"/>
<path d="M136 184.012C136 174.016 135 204.004 135 214" stroke="#211D42" stroke-width="2" stroke-linecap="round" stroke-linejoin="round"/>
<path d="M172 170C172 168.158 166.498 164.528 165.099 163.464C162.251 161.299 158.888 159.052 155.836 157.215C149.696 153.52 143.017 150.192 137.069 146.256C132.465 143.21 127.239 140.403 123.15 136.529C120.018 133.563 115.91 133.044 114 129" stroke="#211D42" stroke-width="2" stroke-linecap="round" stroke-linejoin="round"/>
<path d="M169 165.353C169 183.473 169 129.12 169 111" stroke="#211D42" stroke-width="2" stroke-linecap="round" stroke-linejoin="round"/>
<path d="M191.222 109.025C195.124 109.779 183.269 108.298 179.417 109.473C177.812 109.962 170.623 108.594 170 111" stroke="#211D42" stroke-width="2" stroke-linecap="round" stroke-linejoin="round"/>
<path d="M210.028 100.144C219.864 100.144 190.208 97.7103 180.519 99.9421C172.048 101.893 146.125 100.548 154.725 100.548" stroke="#211D42" stroke-width="2" stroke-linecap="round" stroke-linejoin="round"/>
<path d="M223.947 99.9552C229.263 99.9552 212.968 97.7765 208 100" stroke="#211D42" stroke-width="2" stroke-linecap="round" stroke-linejoin="round"/>
<path d="M210.993 100C211.173 101.707 207.96 102.845 206.638 103.353C205.617 103.745 204.569 104.79 203.485 105.296C202.435 105.787 201.356 106.306 200.198 106.435C198.497 106.626 196.686 106.4 194.982 106.4C194.164 106.4 192 108.188 192 107.984" stroke="#211D42" stroke-width="2" stroke-linecap="round" stroke-linejoin="round"/>
<path d="M173 101.29C173 99.9085 171.251 103.885 171.115 104.386C170.542 106.484 172.298 107.15 172.298 109" stroke="#211D42" stroke-width="2" stroke-linecap="round" stroke-linejoin="round"/>
<path d="M222 95.3448C222 100.409 221.522 92.3644 221.487 90.9867C221.44 89.1093 221 83.5013 221 85.3794" stroke="#1E1E1E" stroke-width="2" stroke-linecap="round" stroke-linejoin="round"/>
<path d="M220.244 83.8853C220.244 84.2044 221 84.7836 221 84.4646C221 82.3938 220.668 80.8515 220.216 78.8451C219.206 74.3603 213.679 74 210.07 74C205.35 74 200.796 75.6808 196.022 75.6808C191.612 75.6808 186.52 75.4992 182.187 76.3075C178.401 77.0138 173.733 77.3236 169.867 77.3236C166.639 77.3236 161.019 78.5402 158.838 81.257C156.165 84.588 156.466 87.3961 156.047 91.5201C155.736 94.5875 157.074 97.1668 157.074 100" stroke="#211D42" stroke-width="2" stroke-linecap="round" stroke-linejoin="round"/>
<path d="M221 84.1219C221.008 84.1219 220.581 87.1892 219.382 86.7838C217.749 86.2314 218.354 84.8806 217.537 83.5667C215.394 80.1209 215.334 89.4308 214.753 90.7934C214.082 92.3662 213.73 94.6133 211.909 95.2015C210.462 95.6688 209.39 92.4238 209.39 91.2143C209.39 89.0559 212.583 80.6518 207.987 81.0112C203.42 81.3683 203.392 89.9825 201.157 92.796C200.132 94.0867 197.779 93.2866 197.779 91.6576C197.779 89.7997 198.6 88.3002 198.743 86.537C198.826 85.5131 199.152 83.0118 197.704 82.7944C196.218 82.5713 195.801 85.4531 195.245 86.5084C194.803 87.3474 192.612 87.4881 192.086 86.7435C191.494 85.904 192.133 84.0129 191.972 83.016C191.899 82.5609 190.358 82.7064 190.092 82.7115C188.845 82.7354 188.939 84.6359 188.939 85.482C188.939 88.2083 188.702 89.6917 187.287 92.0001C186.886 92.6537 185.733 96.1179 184.252 94.7762C182.777 93.4399 182.905 90.4634 182.905 88.6565C182.905 87.1201 184.161 85.031 182.885 83.719C181.508 82.3028 180.271 84.1175 179.544 85.4215C178.427 87.4263 174.791 89.7313 174.23 86.2588C174.004 84.8601 172.194 83.6347 171.259 85.229C169.816 87.6893 169.412 89.148 169.412 92.0001C169.412 93.4418 168.769 95.2335 167.416 95.8463C165.344 96.7847 165.545 93.1722 165.303 91.8904C165.005 90.3108 165.681 88.5849 163.65 88.5849C162.592 88.5849 162.152 90.878 161.342 91.5367C158.237 94.0599 157.889 90.5417 157 88.6655" stroke="#211D42" stroke-width="2" stroke-linecap="round" stroke-linejoin="round"/>
<path d="M215 72.6011C215 75.4625 215 70.8858 215 70.0498C215 68.0928 214.886 66.1247 214.886 64.181C214.886 61.8358 214.63 58.0041 212.938 56.201C210.173 53.2544 204.939 54.1179 201.311 54.1179C196.235 54.1179 191.665 57.0322 186.719 57.0322C179.316 57.0322 168.873 55.0003 163.102 60.8853C160.8 63.2333 162.766 68.8494 163.101 71.6134C163.345 73.6207 164.131 79.6116 164.131 77.5886" stroke="#211D42" stroke-width="2" stroke-linecap="round" stroke-linejoin="round"/>
<path d="M214 65.5235C213.478 65.5235 212.812 66.8363 212.331 65.9202C211.934 65.1637 210.966 63.7532 210.314 63.23C207.974 61.3514 207.783 66.5258 207.783 67.5624C207.783 68.5984 205.055 72.6599 204.129 70.8342C202.863 68.3377 202.95 65.1607 201.718 62.8145C200.403 60.3105 198.036 60.2406 198 63.5974C197.985 65.0024 198.206 66.094 196.578 66.4913C195.684 66.7095 194.263 66.6342 194.199 65.4108C194.158 64.6379 192.067 60.777 191.459 62.7341C190.934 64.4224 191.938 70.6944 190.268 71.3561C182.451 74.4538 186.291 65.4981 182.856 63.0713C179.751 60.8778 179.632 65.8277 178.217 67.316C176.912 68.6885 174.773 69.9857 174.319 67.055C174.039 65.2463 173.524 61.9838 170.68 63.207C168.274 64.2416 171.167 68.8711 169.66 70.3435C168.272 71.6984 166.689 70.8693 165.783 69.4509C165.435 68.9056 164 68.0404 164 67.5624" stroke="#211D42" stroke-width="2" stroke-linecap="round" stroke-linejoin="round"/>
<path d="M212 54.3114C212 56.7985 211.013 51.1608 210.976 51.0701C210.2 49.1844 209.15 46 206.714 46C202.767 46 203.003 52.2631 203.003 55" stroke="#211D42" stroke-width="2" stroke-linecap="round" stroke-linejoin="round"/>
<path d="M191.842 53.5472C191.842 55.7562 192.225 49.2498 191.799 47.6403C191.38 46.0567 188 42.617 188 43.0349" stroke="#211D42" stroke-width="2" stroke-linecap="round" stroke-linejoin="round"/>
<path d="M189 43C189 44.4193 186.835 45.5006 186.034 46.662C185.178 47.9038 184.164 50.5406 184 52" stroke="#211D42" stroke-width="2" stroke-linecap="round" stroke-linejoin="round"/>
<path d="M175.759 55.9061C175.759 57.4409 176.288 52.7545 175.777 51.3016C175.242 49.7788 173.716 47 171.916 47C169.612 47 166.652 56.0443 168.673 58" stroke="#211D42" stroke-width="2" stroke-linecap="round" stroke-linejoin="round"/>
<path d="M106.869 174.238C106.869 174.656 107 173.542 107.107 173.542C107.61 173.542 108.039 174.819 107.661 174.819C107.091 174.819 106.26 173.434 106.831 173.154C107.745 172.705 108.315 174.656 107.813 174.819C104.089 176.027 107.255 170.721 107.255 172.728C107.255 176.495 105.64 168.744 107.943 173.735" stroke="#211D42" stroke-width="2" stroke-linecap="round" stroke-linejoin="round"/>
<path d="M106.677 197.451C108.673 197.711 106.546 200.875 106.546 197.334C106.546 194.715 108.31 200.072 106.508 197.658C104.432 194.875 109.519 196.075 107.528 197.773C106.73 198.454 106.312 197.179 106.312 196.375C106.312 196.046 107.746 196.254 107.515 197.021" stroke="#211D42" stroke-width="2" stroke-linecap="round" stroke-linejoin="round"/>
<path d="M90 197.275C90 198.02 89.3113 199.712 88.956 197.792C88.2768 194.122 91.0431 197.013 89.5436 198.333C88.1209 199.585 87.1868 196.525 89.0086 197.126C90.9294 197.76 88.1664 200.431 88.1664 197.991" stroke="#211D42" stroke-width="2" stroke-linecap="round" stroke-linejoin="round"/>
<path d="M89.3878 173.01C90.7538 173.01 90.7712 175.261 89.366 175.364C87.0578 175.534 90.0261 170.925 90.908 174.147C91.6167 176.736 88 176.347 88 174.604C88 172.67 91.9711 175.841 90.3769 175.841" stroke="#211D42" stroke-width="2" stroke-linecap="round" stroke-linejoin="round"/>
<path d="M91.4998 152.031C92.9553 153.149 90.091 155.388 89.5969 152.584C89.4157 151.555 92.636 151.778 91.8867 154.124C91.101 156.584 87.4673 153.095 89.7342 152.978C93.2084 152.798 91.5139 155.628 90.4645 154.69" stroke="#211D42" stroke-width="2" stroke-linecap="round" stroke-linejoin="round"/>
<path d="M108.795 152.414C111.896 152.414 106.459 157.891 106.143 152.904C106.051 151.452 109.258 152.045 109.885 152.956C110.581 153.967 107.914 154.613 107.181 154.329C106.137 153.924 105.275 151.064 106.917 151.001C108.16 150.954 109.615 152.249 108.289 153.23C107.588 153.749 106.53 153.896 106.55 153.019C106.57 152.125 109.256 152.881 109.256 154.203" stroke="#211D42" stroke-width="2" stroke-linecap="round" stroke-linejoin="round"/>
</svg>
