<svg width="24" height="24" viewBox="0 0 24 24" fill="none" xmlns="http://www.w3.org/2000/svg">
<path d="M18.6502 11.65H12.7502V5.75C12.7502 5.445 12.5027 5.2 12.2002 5.2C11.8952 5.2 11.6502 5.445 11.6502 5.75V11.65H5.7502C5.4452 11.65 5.2002 11.895 5.2002 12.2C5.2002 12.505 5.4452 12.75 5.7502 12.75H11.6502V18.65C11.6502 18.955 11.8952 19.2 12.2002 19.2C12.5027 19.2 12.7502 18.955 12.7502 18.65V12.75H18.6502C18.9527 12.75 19.2002 12.505 19.2002 12.2C19.2002 11.8975 18.9527 11.65 18.6502 11.65Z" fill="#FB0067"/>
<path fill-rule="evenodd" clip-rule="evenodd" d="M12.95 11.45H18.65C19.063 11.45 19.4 11.787 19.4 12.2C19.4 12.616 19.0624 12.95 18.65 12.95H12.95V18.65C12.95 19.066 12.6124 19.4 12.2 19.4C11.7845 19.4 11.45 19.0655 11.45 18.65V12.95H5.75C5.33454 12.95 5 12.6155 5 12.2C5 11.7845 5.33454 11.45 5.75 11.45H11.45V5.75C11.45 5.33454 11.7845 5 12.2 5C12.6124 5 12.95 5.33395 12.95 5.75V11.45ZM18.6502 11.65C18.9527 11.65 19.2002 11.8975 19.2002 12.2C19.2002 12.505 18.9527 12.75 18.6502 12.75H12.7502V18.65C12.7502 18.955 12.5027 19.2 12.2002 19.2C11.8952 19.2 11.6502 18.955 11.6502 18.65V12.75H5.7502C5.4452 12.75 5.2002 12.505 5.2002 12.2C5.2002 11.895 5.4452 11.65 5.7502 11.65H11.6502V5.75C11.6502 5.445 11.8952 5.2 12.2002 5.2C12.5027 5.2 12.7502 5.445 12.7502 5.75V11.65H18.6502Z" fill="#FB0067"/>
<path fill-rule="evenodd" clip-rule="evenodd" d="M12 22.5C17.799 22.5 22.5 17.799 22.5 12C22.5 6.20101 17.799 1.5 12 1.5C6.20101 1.5 1.5 6.20101 1.5 12C1.5 17.799 6.20101 22.5 12 22.5ZM12 24C18.6274 24 24 18.6274 24 12C24 5.37258 18.6274 0 12 0C5.37258 0 0 5.37258 0 12C0 18.6274 5.37258 24 12 24Z" fill="#FB0067"/>
</svg>
