<svg width="27" height="21" viewBox="0 0 27 21" fill="none" xmlns="http://www.w3.org/2000/svg">
<path d="M1.84081 0.000185843C0.8317 0.000185843 0 0.834873 0 1.84761V14.7803C0 15.7933 0.8317 16.628 1.84081 16.628H14.7272C14.8916 16.6303 15.05 16.5665 15.1668 16.4507C15.2839 16.335 15.3496 16.1769 15.3496 16.0121C15.3496 15.8472 15.2839 15.6893 15.1668 15.5735C15.05 15.4578 14.8916 15.394 14.7272 15.3963H1.84081C1.49024 15.3963 1.22722 15.1321 1.22722 14.7803V12.2785L7.01844 8.44881L10.9688 11.5665C11.173 11.7295 11.4577 11.7449 11.6783 11.6049L14.6793 9.69007L17.7954 12.3363C17.0295 13.2481 16.5682 14.4232 16.5682 15.7042C16.5682 18.5879 18.9107 20.9388 21.7841 20.9388C24.6575 20.9388 27 18.5879 27 15.7042C27 13.1374 25.1389 10.9969 22.7046 10.5561V1.84742C22.7046 0.834687 21.8729 0 20.8636 0L1.84081 0.000185843ZM1.84081 1.23176H20.8636C21.2142 1.23176 21.4774 1.49574 21.4774 1.84755V10.4886C20.4428 10.5502 19.484 10.9066 18.6969 11.4893L15.1204 8.45819C14.9164 8.28764 14.6262 8.26831 14.4013 8.41007L11.3907 10.3346L7.44026 7.21693C7.3264 7.12522 7.18365 7.07753 7.03769 7.08205C6.92447 7.08742 6.81489 7.12415 6.72115 7.18794L1.22744 10.8061V1.8472C1.22744 1.49538 1.49047 1.23142 1.84103 1.23142L1.84081 1.23176ZM12.5795 2.15558C11.0617 2.15558 9.81822 3.40349 9.81822 4.92677C9.81822 6.45004 11.0617 7.69817 12.5795 7.69817C14.0973 7.69817 15.341 6.45004 15.341 4.92677C15.341 3.40349 14.0973 2.15558 12.5795 2.15558ZM12.5795 3.38716C13.4341 3.38716 14.1136 4.06909 14.1136 4.92677C14.1136 5.78444 13.4341 6.46637 12.5795 6.46637C11.7249 6.46637 11.0454 5.78444 11.0454 4.92677C11.0454 4.06909 11.7249 3.38716 12.5795 3.38716ZM21.7841 11.701C23.9943 11.701 25.7728 13.4859 25.7728 15.7041C25.7728 17.9222 23.9943 19.7071 21.7841 19.7071C19.5739 19.7071 17.7954 17.9222 17.7954 15.7041C17.7954 13.4859 19.5739 11.701 21.7841 11.701ZM21.7171 12.9232C21.4008 12.958 21.1636 13.2295 21.1705 13.5487V15.0883H19.6364C19.6171 15.0874 19.5981 15.0874 19.5788 15.0883C19.4161 15.0958 19.2629 15.1682 19.1533 15.2891C19.0435 15.41 18.9862 15.5696 18.9939 15.7331C19.0014 15.8963 19.0735 16.0499 19.194 16.1601C19.3145 16.2701 19.4735 16.3276 19.6364 16.3199H21.1705V17.8595C21.1681 18.0244 21.2317 18.1834 21.347 18.3007C21.4624 18.4182 21.6199 18.4841 21.7841 18.4841C21.9484 18.4841 22.1057 18.4182 22.2211 18.3007C22.3365 18.1834 22.4 18.0244 22.3977 17.8595V16.3199H23.9318C24.0961 16.3222 24.2545 16.2585 24.3714 16.1427C24.4884 16.0269 24.5541 15.869 24.5541 15.7041C24.5541 15.5393 24.4884 15.3812 24.3714 15.2655C24.2545 15.1497 24.0961 15.0859 23.9318 15.0883H22.3977V13.5487C22.4004 13.382 22.3356 13.2213 22.2181 13.1036C22.1006 12.9857 21.9405 12.9206 21.7744 12.9232C21.7554 12.9223 21.7361 12.9223 21.7171 12.9232V12.9232Z" fill="#667180"/>
</svg>
