<svg width="28" height="23" viewBox="0 0 28 23" fill="none" xmlns="http://www.w3.org/2000/svg">
<path d="M22.8067 0.763672H8.13098C8.53975 1.23366 8.7958 1.83773 8.8121 2.50572H22.8067C24.7158 2.50572 26.2687 4.06877 26.2687 5.98986V12.9579C26.2687 14.8792 24.7156 16.4421 22.8067 16.4421H20.5611L20.479 17.2203C20.3717 18.232 20.3594 19.5943 20.743 20.9855C18.9718 20.1902 18.0913 17.8603 17.8324 17.0472L17.6396 16.4421H5.49603C3.58693 16.4421 2.03402 14.879 2.03402 12.9579V8.83657C1.32061 8.70078 0.706754 8.28771 0.30304 7.71209V12.9579C0.30304 15.8399 2.63264 18.1843 5.49624 18.1843H16.3971C17.0317 19.8321 18.9481 23.0342 22.0031 22.9981C23.0019 23.0219 23.6574 22.857 23.6574 22.857C23.255 22.3921 22.881 21.718 22.881 21.718C22.2604 20.54 22.1196 19.2426 22.1479 18.1843H22.8068C25.6704 18.1843 28 15.8398 28 12.9579L27.9998 5.9893C27.9996 3.10734 25.6703 0.763672 22.8067 0.763672Z" fill="#FB0067"/>
</svg>
