<svg width="31" height="25" viewBox="0 0 31 25" fill="none" xmlns="http://www.w3.org/2000/svg">
<path d="M25.8067 2.76367H11.131C11.5397 3.23366 11.7958 3.83773 11.8121 4.50572H25.8067C27.7158 4.50572 29.2687 6.06877 29.2687 7.98986V14.9579C29.2687 16.8792 27.7156 18.4421 25.8067 18.4421H23.5611L23.479 19.2203C23.3717 20.232 23.3594 21.5943 23.743 22.9855C21.9718 22.1902 21.0913 19.8603 20.8324 19.0472L20.6396 18.4421H8.49603C6.58693 18.4421 5.03402 16.879 5.03402 14.9579V10.8366C4.32061 10.7008 3.70675 10.2877 3.30304 9.71209V14.9579C3.30304 17.8399 5.63264 20.1843 8.49624 20.1843H19.3971C20.0317 21.8321 21.9481 25.0342 25.0031 24.9981C26.0019 25.0219 26.6574 24.857 26.6574 24.857C26.255 24.3921 25.881 23.718 25.881 23.718C25.2604 22.54 25.1196 21.2426 25.1479 20.1843H25.8068C28.6704 20.1843 31 17.8398 31 14.9579L30.9998 7.9893C30.9996 5.10734 28.6703 2.76367 25.8067 2.76367Z" fill="#FB0067"/>
<path d="M8.07354 3.55221H5.55814V1.02073C5.55814 0.456927 5.10391 0 4.54389 0C3.98367 0 3.52964 0.457132 3.52964 1.02073V3.55221H1.01425C0.454025 3.55221 0 4.00934 0 4.57294C0 5.13674 0.454229 5.59367 1.01425 5.59367H3.52964V8.12514C3.52964 8.68895 3.98387 9.14587 4.54389 9.14587C5.10412 9.14587 5.55814 8.68874 5.55814 8.12514V5.59367H8.07354C8.63376 5.59367 9.08778 5.13654 9.08778 4.57294C9.08778 4.00935 8.63377 3.55221 8.07354 3.55221Z" fill="#FB0067"/>
</svg>
