<svg width="32" height="25" viewBox="0 0 32 25" fill="none" xmlns="http://www.w3.org/2000/svg">
<path d="M6.60082 15.2071L6.60082 15.2071L6.55964 15.6595L6.36733 15.6046L6.36729 15.6047C6.36728 15.6048 6.36727 15.6048 6.36725 15.6048L4.33523 22.7167L4.33516 22.717C4.24371 23.0387 4.33375 23.3823 4.56824 23.6184L4.56872 23.6189C4.74348 23.7937 4.97708 23.8885 5.21848 23.8885C5.30141 23.8885 5.38642 23.8775 5.47036 23.8538L5.47084 23.8536L12.5818 21.8216C12.5819 21.8216 12.5819 21.8216 12.582 21.8216C12.734 21.7788 12.8699 21.698 12.98 21.5879L12.98 21.5879L26.6938 7.87067C26.6939 7.87066 26.6939 7.87066 26.6939 7.87065C27.342 7.22246 27.7 6.35973 27.7 5.44407C27.7 4.52733 27.3421 3.66323 26.6937 3.0161L25.1701 1.49238C23.8324 0.154574 21.6539 0.153116 20.3159 1.49237C20.3159 1.4924 20.3159 1.49243 20.3159 1.49245L6.60082 15.2071ZM25.6901 6.86687L24.3361 8.2209L19.952 3.83684L21.3062 2.48268C21.8935 1.89532 22.4591 1.73886 22.9461 1.79069C23.4427 1.84356 23.8892 2.11665 24.2179 2.44481L25.7415 3.96855C25.7849 4.01188 25.8259 4.05103 25.8647 4.08806C25.9959 4.21312 26.1017 4.31404 26.1847 4.47059C26.2862 4.66205 26.3555 4.95198 26.3011 5.47967L26.3 5.4899V5.50018C26.3 5.70081 26.2293 5.96354 26.1109 6.22429C25.9931 6.48373 25.8383 6.7187 25.6901 6.86687ZM23.3461 9.21085L12.1425 20.4144L5.85723 22.3284L7.75878 16.0301L18.9621 4.82679L23.3461 9.21085Z" fill="#211D42" stroke="#211D42" stroke-width="0.4"/>
</svg>
