<svg width="32" height="24" viewBox="0 0 32 24" fill="none" xmlns="http://www.w3.org/2000/svg">
<path d="M11.4611 2C10.1689 2 9.07048 2.87225 8.71512 4.06755H5.77533C5.32305 4.06755 5 4.42291 5 4.87518C5 5.32746 5.35536 5.68282 5.80764 5.68282H8.74743C9.07048 6.87812 10.2012 7.75037 11.4934 7.75037C12.8179 7.75037 13.9163 6.87812 14.2717 5.68282H26.1924C26.6446 5.68282 27 5.32746 27 4.87518C27 4.42291 26.6446 4.06755 26.1924 4.06755H14.2717C13.884 2.87225 12.7856 2 11.4611 2ZM11.4934 3.61527C12.1718 3.61527 12.7533 4.16446 12.7533 4.87518C12.7533 5.5859 12.1718 6.1351 11.4934 6.1351C10.815 6.1351 10.2335 5.5859 10.2335 4.87518C10.2335 4.16446 10.815 3.61527 11.4934 3.61527Z" fill="#FB0067"/>
<path d="M21.185 8.46094C19.8928 8.46094 18.7944 9.33318 18.4391 10.5285H5.80764C5.32305 10.5285 5 10.8838 5 11.3361C5 11.7884 5.35536 12.1438 5.80764 12.1438H18.4391C18.7621 13.3391 19.8928 14.2113 21.185 14.2113C22.5095 14.2113 23.6079 13.3391 23.9633 12.1438H26.1924C26.6446 12.1438 27 11.7884 27 11.3361C27 10.8838 26.6446 10.5285 26.1924 10.5285H23.9633C23.6079 9.33318 22.5095 8.46094 21.185 8.46094ZM21.2173 10.0762C21.8957 10.0762 22.4772 10.6254 22.4772 11.3361C22.4772 12.0468 21.8957 12.596 21.2173 12.596C20.5389 12.596 19.9574 12.0468 19.9574 11.3361C19.9574 10.6254 20.5066 10.0762 21.2173 10.0762Z" fill="#FB0067"/>
<path d="M15.3377 15.5684C14.0455 15.5684 12.9471 16.4406 12.5918 17.6359H5.80764C5.32305 17.6359 5 17.9913 5 18.4435C5 18.8958 5.35536 19.2512 5.80764 19.2512H12.6241C12.9471 20.4465 14.0778 21.3187 15.37 21.3187C16.6946 21.3187 17.793 20.4465 18.1483 19.2512H26.1924C26.6446 19.2512 27 18.8958 27 18.4435C27 17.9913 26.6446 17.6359 26.1924 17.6359H18.116C17.7606 16.4406 16.6623 15.5684 15.3377 15.5684ZM15.37 17.1836C16.0485 17.1836 16.63 17.7328 16.63 18.4435C16.63 19.1543 16.0485 19.7035 15.37 19.7035C14.6916 19.7035 14.1101 19.1543 14.1101 18.4435C14.1424 17.7328 14.6916 17.1836 15.37 17.1836Z" fill="#FB0067"/>
</svg>
