<svg width="24" height="25" viewBox="0 0 24 25" fill="none" xmlns="http://www.w3.org/2000/svg">
<path fill-rule="evenodd" clip-rule="evenodd" d="M11.536 15.536C10.7517 15.836 9.89699 16 9 16C5.1 16 2 12.9 2 9C2 5.1 5.1 2 9 2C12.9 2 16 5.1 16 9C16 9.89699 15.836 10.7517 15.536 11.536L21.7 17.7C21.9 17.9 22 18.1 22 18.4V21C22 21.6 21.6 22 21 22H18.4C18.1 22 17.9 21.9 17.7 21.7L17 21V19H15V17H13L11.536 15.536ZM7.5 10C6.1 10 5 8.9 5 7.5C5 6.1 6.1 5 7.5 5C8.9 5 10 6.1 10 7.5C10 8.9 8.9 10 7.5 10Z" fill="#211D42"/>
<line x1="5.6" y1="24.7" x2="23.6" y2="0.7" stroke="black"/>
</svg>
