<svg width="32" height="24" viewBox="0 0 32 24" fill="none" xmlns="http://www.w3.org/2000/svg">
<path fill-rule="evenodd" clip-rule="evenodd" d="M21.6141 3.12694C19.4073 1.73063 16.7593 1.20682 14.187 1.65774C11.6147 2.10866 9.30282 3.50195 7.70251 5.56565C6.10219 7.62936 5.32834 10.2154 5.532 12.8189C5.73566 15.4224 6.90221 17.8566 8.80397 19.6464C10.4742 21.2183 12.6064 22.194 14.8697 22.439C14.9138 22.4438 14.952 22.431 14.9869 22.3977C15.0248 22.3615 15.0542 22.3032 15.0542 22.2308V13.5C15.0542 13.0858 15.39 12.75 15.8042 12.75C16.2184 12.75 16.5542 13.0858 16.5542 13.5V22.2308C16.5542 23.1888 15.7533 24.0435 14.7082 23.9303C12.1216 23.6503 9.68487 22.5352 7.77596 20.7387C5.60253 18.6933 4.26932 15.9113 4.03657 12.9359C3.80381 9.9604 4.68821 7.00497 6.51715 4.64646C8.34608 2.28794 10.9883 0.69561 13.928 0.180273C16.8677 -0.335064 19.894 0.263578 22.4161 1.85935C24.9383 3.45513 26.7752 5.9335 27.5684 8.81072C28.3617 11.6879 28.0542 14.7575 26.7062 17.4203C25.3581 20.083 23.0661 22.1479 20.2776 23.2117C19.8906 23.3594 19.4572 23.1654 19.3095 22.7784C19.1619 22.3914 19.3559 21.9579 19.7429 21.8103C22.1828 20.8794 24.1883 19.0726 25.3679 16.7427C26.5475 14.4128 26.8165 11.7269 26.1224 9.20938C25.4283 6.69181 23.821 4.52324 21.6141 3.12694Z" fill="#FB0067"/>
<path fill-rule="evenodd" clip-rule="evenodd" d="M16 10C16.5523 10 17 9.55228 17 9C17 8.44772 16.5523 8 16 8C15.4477 8 15 8.44772 15 9C15 9.55228 15.4477 10 16 10ZM16 11C17.1046 11 18 10.1046 18 9C18 7.89543 17.1046 7 16 7C14.8954 7 14 7.89543 14 9C14 10.1046 14.8954 11 16 11Z" fill="#FB0067"/>
</svg>
