<svg width="22" height="19" viewBox="0 0 22 19" fill="none" xmlns="http://www.w3.org/2000/svg">
<path d="M8.52797 18.0021C9.19824 18.6675 10.079 19 10.9598 19C11.8405 19 12.7213 18.6675 13.3918 18.0021L20.0048 11.4403C20.0092 11.4359 20.0133 11.4316 20.0177 11.4269L20.0195 11.4253C20.0232 11.4219 20.0264 11.4189 20.029 11.4163C22.657 8.80873 22.657 4.5664 20.029 1.95886C18.7562 0.695635 17.0637 0 15.2634 0C13.6683 0 12.158 0.546024 10.949 1.54907C8.30757 -0.556671 4.40482 -0.391499 1.96341 2.03121C-0.616965 4.59124 -0.656861 8.76969 1.86105 11.3805C1.87756 11.401 1.89544 11.4212 1.9147 11.4403L8.52797 18.0021Z" fill="#FB0067"/>
</svg>
