<svg width="24" height="21" viewBox="0 0 24 21" fill="none" xmlns="http://www.w3.org/2000/svg">
<path d="M14.6031 19.2151L14.3918 19.0021L14.6031 19.2151L21.2161 12.6533C21.2208 12.6486 21.2252 12.644 21.2288 12.6403C21.2323 12.637 21.2365 12.633 21.2403 12.6292C23.9866 9.90435 23.9866 5.47079 21.2403 2.7459C19.911 1.42667 18.1425 0.7 16.2634 0.7C14.6803 0.7 13.1754 1.21574 11.9452 2.16771C9.1922 0.124274 5.24495 0.344507 2.75211 2.81824C0.0580431 5.49108 0.0136293 9.85054 2.63648 12.5798C2.65656 12.6041 2.67884 12.6289 2.7034 12.6533L9.31662 19.2151C10.0458 19.9389 11.0037 20.3 11.9598 20.3C12.9158 20.3 13.8737 19.9389 14.6031 19.2151ZM10.7119 17.8238L4.1569 11.3195C4.14146 11.3015 4.12638 11.2852 4.11292 11.2711L4.11295 11.2711L4.10927 11.2673C2.18063 9.31068 2.19808 6.1437 4.14734 4.20929C6.09813 2.27418 9.29378 2.25698 11.2677 4.17126C11.4528 4.35091 11.6916 4.44247 11.9297 4.44908L11.9297 4.44919H11.9337L11.9373 4.44947H11.9488C12.213 4.44947 12.4771 4.34903 12.6703 4.15092L12.6716 4.14964C12.6784 4.14252 12.6886 4.13168 12.6985 4.12091C13.6531 3.18175 14.9174 2.66506 16.2637 2.66506C17.6176 2.66506 18.8887 3.18769 19.8453 4.13692C21.8143 6.09055 21.8183 9.26631 19.8623 11.2211C19.8477 11.2343 19.8287 11.2519 19.8145 11.2664C19.8024 11.2784 19.7913 11.2903 19.781 11.3018L13.2079 17.8238C13.2079 17.8238 13.2079 17.8238 13.2079 17.8238C12.5202 18.5059 11.3997 18.5062 10.7119 17.8238Z" fill="#211D42" stroke="#211D42" stroke-width="0.6"/>
</svg>
