<svg width="24" height="24" viewBox="0 0 24 24" fill="none" xmlns="http://www.w3.org/2000/svg">
<path fill-rule="evenodd" clip-rule="evenodd" d="M12 24C18.6274 24 24 18.6274 24 12C24 5.37258 18.6274 0 12 0C5.37258 0 0 5.37258 0 12C0 18.6274 5.37258 24 12 24Z" fill="white"/>
<path d="M16.3721 7.25031L12.2001 11.4222L8.02821 7.25031C7.81254 7.03464 7.46429 7.03641 7.2504 7.25031C7.03473 7.46598 7.03473 7.81246 7.2504 8.02813L11.4223 12.2001L7.2504 16.372C7.03473 16.5877 7.03473 16.9341 7.2504 17.1498C7.46606 17.3655 7.81254 17.3655 8.02821 17.1498L12.2001 12.9779L16.3721 17.1498C16.5877 17.3655 16.9342 17.3655 17.1499 17.1498C17.3638 16.9359 17.3656 16.5877 17.1499 16.372L12.978 12.2001L17.1499 8.02813C17.3638 7.81423 17.3656 7.46598 17.1499 7.25031C16.936 7.03641 16.586 7.03641 16.3721 7.25031Z" fill="#FB0067"/>
<path fill-rule="evenodd" clip-rule="evenodd" d="M12.2 11.1395L16.2305 7.10903C16.5225 6.81702 16.9992 6.81702 17.2912 7.10903C17.5854 7.40322 17.5828 7.8781 17.2912 8.16969L13.2607 12.2002L17.2912 16.2307C17.5854 16.5249 17.5828 16.9998 17.2912 17.2914C16.9974 17.5851 16.5243 17.5851 16.2305 17.2914L12.2 13.2609L8.1695 17.2914C7.87572 17.5851 7.40261 17.5851 7.10884 17.2914C6.81507 16.9976 6.81506 16.5245 7.10884 16.2307L11.1393 12.2002L7.10884 8.16969C6.81507 7.87592 6.81507 7.4028 7.10884 7.10903C7.40042 6.81744 7.87531 6.81484 8.1695 7.10903L12.2 11.1395ZM16.3721 7.25031C16.586 7.03641 16.936 7.03641 17.1499 7.25031C17.3656 7.46598 17.3638 7.81423 17.1499 8.02813L12.978 12.2001L17.1499 16.372C17.3656 16.5877 17.3638 16.9359 17.1499 17.1498C16.9342 17.3655 16.5877 17.3655 16.3721 17.1498L12.2001 12.9779L8.02821 17.1498C7.81254 17.3655 7.46606 17.3655 7.2504 17.1498C7.03473 16.9341 7.03473 16.5877 7.2504 16.372L11.4223 12.2001L7.2504 8.02813C7.03473 7.81246 7.03473 7.46598 7.2504 7.25031C7.46429 7.03641 7.81254 7.03464 8.02821 7.25031L12.2001 11.4222L16.3721 7.25031Z" fill="#FB0067"/>
</svg>
