<svg width="24" height="24" viewBox="0 0 24 24" fill="none" xmlns="http://www.w3.org/2000/svg">
<path d="M24 7.73867V6.74237L12.9167 0.24449C12.3608 -0.0814968 11.6389 -0.0814968 11.0833 0.24449L0 6.74237V7.73867H2.70967V18.1924H1.54838C0.694517 18.1924 0 18.887 0 19.7411C0 20.5951 0.694517 21.2898 1.54838 21.2898H14.5053C14.7913 21.2898 15.0553 21.4434 15.1773 21.6816C15.91 23.1114 17.3625 24 18.9678 24H22.8387C23.479 24 24 23.4789 24 22.8385C24 22.1981 23.479 21.677 22.8387 21.677H19.7419C19.5284 21.677 19.3548 21.5034 19.3548 21.2898C19.3548 21.0761 19.5284 20.9026 19.7419 20.9026H22.8387C23.479 20.9026 24 20.3815 24 19.7411C24 19.1007 23.479 18.5796 22.8387 18.5796H19.7419C19.5284 18.5796 19.3548 18.406 19.3548 18.1924C19.3548 17.9788 19.5284 17.8052 19.7419 17.8052H22.8387C23.479 17.8052 24 17.2841 24 16.6437C24 16.0033 23.479 15.4822 22.8387 15.4822H21.2903V7.7387L24 7.73867ZM23.2258 16.6437C23.2258 16.8573 23.0523 17.0308 22.8387 17.0308H19.7419C19.1017 17.0308 18.5807 17.552 18.5807 18.1924C18.5807 18.8328 19.1017 19.3539 19.7419 19.3539H22.8387C23.0523 19.3539 23.2258 19.5274 23.2258 19.7411C23.2258 19.9547 23.0523 20.1282 22.8387 20.1282H19.7419C19.1017 20.1282 18.5807 20.6494 18.5807 21.2898C18.5807 21.9302 19.1017 22.4513 19.7419 22.4513H22.8387C23.0523 22.4513 23.2258 22.6248 23.2258 22.8385C23.2258 23.0521 23.0523 23.2256 22.8387 23.2256H18.9678C17.6539 23.2256 16.4656 22.4985 15.866 21.3281C15.6085 20.8271 15.0875 20.5154 14.5053 20.5154H1.54838C1.12137 20.5154 0.774192 20.1682 0.774192 19.7411C0.774192 19.314 1.12137 18.9667 1.54838 18.9667H14.5053C15.0875 18.9667 15.6088 18.6551 15.8663 18.1537C16.4657 16.9837 17.6539 16.2565 18.9678 16.2565H22.8387C23.0523 16.2565 23.2258 16.43 23.2258 16.6437ZM15.4839 13.5463V15.8693H14.7097V13.5463H13.9355V15.8693H13.1613V13.5463H12.3871V15.8693H11.6129V13.5463H10.8387V15.8693H10.0645V13.5463H9.29035V15.8693H8.51616V13.5463H8.12906C7.27519 13.5463 6.58068 12.8516 6.58068 11.9976C6.58068 11.1435 7.27519 10.4489 8.12906 10.4489C8.35233 10.4489 8.57579 10.5016 8.79301 10.605L9.24629 10.8217L9.33995 10.3281C9.58189 9.05195 10.701 8.12583 12 8.12583C13.299 8.12583 14.4182 9.05195 14.6601 10.3281L14.7538 10.8217L15.2071 10.605C15.4243 10.5016 15.6477 10.4489 15.871 10.4489C16.7249 10.4489 17.4194 11.1435 17.4194 11.9976C17.4194 12.8516 16.7249 13.5463 15.871 13.5463H15.4839ZM8.51616 16.6437H15.4839V17.2915C15.3712 17.4523 15.2687 17.6222 15.1773 17.8002C15.0553 18.0387 14.7914 18.1924 14.5053 18.1924H8.51613L8.51616 16.6437ZM18.9678 15.4822C17.9563 15.4822 17.0063 15.836 16.2581 16.4547V14.2885C17.3551 14.1033 18.1936 13.1466 18.1936 11.9976C18.1936 10.7165 17.1519 9.67454 15.871 9.67454C15.6818 9.67454 15.4932 9.69891 15.3085 9.74696C14.8455 8.33535 13.519 7.35149 12 7.35149C10.481 7.35149 9.15453 8.33531 8.69157 9.74696C8.50683 9.69892 8.3183 9.67454 8.12906 9.67454C6.84819 9.67454 5.80649 10.7165 5.80649 11.9976C5.80649 13.1467 6.64496 14.1034 7.74197 14.2885V18.1924H3.48391V6.96432H1.15288L11.4753 0.912022C11.7934 0.725347 12.2073 0.725347 12.5255 0.912022L22.8474 6.96432H20.5164V15.4822H18.9678Z" fill="#FB0067"/>
<path d="M8.90348 3.47963C8.26307 3.47963 7.74196 4.00075 7.74196 4.64115C7.74196 5.28156 8.26307 5.80268 8.90348 5.80268C9.54389 5.80268 10.065 5.28156 10.065 4.64115C10.065 4.00075 9.54389 3.47963 8.90348 3.47963ZM8.90348 5.02833C8.68985 5.02833 8.51631 4.85479 8.51631 4.64115C8.51631 4.42752 8.68985 4.25398 8.90348 4.25398C9.11712 4.25398 9.29066 4.42752 9.29066 4.64115C9.29066 4.85479 9.11712 5.02833 8.90348 5.02833Z" fill="#FB0067"/>
<path d="M12.0003 3.47963C11.3599 3.47963 10.8387 4.00075 10.8387 4.64115C10.8387 5.28156 11.3599 5.80268 12.0003 5.80268C12.6407 5.80268 13.1618 5.28156 13.1618 4.64115C13.1618 4.00075 12.6407 3.47963 12.0003 3.47963ZM12.0003 5.02833C11.7866 5.02833 11.6131 4.85479 11.6131 4.64115C11.6131 4.42752 11.7866 4.25398 12.0003 4.25398C12.2139 4.25398 12.3874 4.42752 12.3874 4.64115C12.3874 4.85479 12.2139 5.02833 12.0003 5.02833Z" fill="#FB0067"/>
<path d="M15.097 3.47963C14.4566 3.47963 13.9355 4.00075 13.9355 4.64115C13.9355 5.28156 14.4566 5.80268 15.097 5.80268C15.7374 5.80268 16.2585 5.28156 16.2585 4.64115C16.2585 4.00075 15.7374 3.47963 15.097 3.47963ZM15.097 5.02833C14.8834 5.02833 14.7099 4.85479 14.7099 4.64115C14.7099 4.42752 14.8834 4.25398 15.097 4.25398C15.3107 4.25398 15.4842 4.42752 15.4842 4.64115C15.4842 4.85479 15.3107 5.02833 15.097 5.02833Z" fill="#FB0067"/>
<path d="M4.25809 16.6436H5.03244V17.4179H4.25809V16.6436Z" fill="#FB0067"/>
<path d="M4.25809 15.095H5.03244V15.8694H4.25809V15.095Z" fill="#FB0067"/>
<path d="M4.25809 13.546H5.03244V14.3204H4.25809V13.546Z" fill="#FB0067"/>
<path d="M18.9677 6.96429H19.7421V7.73863H18.9677V6.96429Z" fill="#FB0067"/>
<path d="M18.9677 8.51325H19.7421V9.2876H18.9677V8.51325Z" fill="#FB0067"/>
<path d="M18.9677 10.0618H19.7421V10.8362H18.9677V10.0618Z" fill="#FB0067"/>
</svg>
