<svg width="24" height="24" viewBox="0 0 24 24" fill="none" xmlns="http://www.w3.org/2000/svg">
<path fill-rule="evenodd" clip-rule="evenodd" d="M11.536 14.536C10.7517 14.836 9.89699 15 9 15C5.1 15 2 11.9 2 8C2 4.1 5.1 1 9 1C12.9 1 16 4.1 16 8C16 8.89699 15.836 9.75166 15.536 10.536L21.7 16.7C21.9 16.9 22 17.1 22 17.4V20C22 20.6 21.6 21 21 21H18.4C18.1 21 17.9 20.9 17.7 20.7L17 20V18H15V16H13L11.536 14.536ZM7.5 9C6.1 9 5 7.9 5 6.5C5 5.1 6.1 4 7.5 4C8.9 4 10 5.1 10 6.5C10 7.9 8.9 9 7.5 9Z" fill="#211D42"/>
</svg>
