<svg width="24" height="23" viewBox="0 0 24 23" fill="none" xmlns="http://www.w3.org/2000/svg">
<path d="M14.4064 1.38011L16.5498 5.04597C16.6725 5.25523 16.8247 5.4257 17.0046 5.55603C17.1838 5.68635 17.3948 5.77771 17.6343 5.82892L21.7983 6.72605C22.2914 6.83221 22.727 7.05525 23.0812 7.37509C23.4347 7.69341 23.7014 8.1024 23.8579 8.58014C24.0144 9.05941 24.0402 9.546 23.9425 10.0092C23.8447 10.4723 23.6228 10.9077 23.2849 11.2845L20.4465 14.4478C20.2848 14.6278 20.1687 14.8254 20.0996 15.0375C20.0306 15.2483 20.0086 15.4766 20.0328 15.7194L20.4627 19.9407C20.5134 20.4413 20.4355 20.9219 20.2414 21.3537C20.0467 21.7875 19.7381 22.1666 19.3288 22.463C18.9194 22.7587 18.4624 22.9342 17.9885 22.9847C17.5153 23.0353 17.0318 22.9606 16.5689 22.7571L12.6709 21.0456C12.4476 20.9476 12.2235 20.8992 12 20.8992C11.7767 20.8992 11.5526 20.9482 11.3291 21.0456L7.43107 22.7571C6.96807 22.9606 6.48391 23.0351 6.01151 22.9847C5.53758 22.9342 5.08058 22.7593 4.6712 22.463C4.26186 22.1673 3.95331 21.7875 3.75855 21.3544C3.56464 20.9219 3.48674 20.4413 3.53731 19.9414L3.96716 15.7201C3.99142 15.4778 3.96938 15.2488 3.90036 15.0382C3.83134 14.8261 3.71516 14.6285 3.55354 14.4485L0.715127 11.2852C0.377193 10.9084 0.155256 10.473 0.0575489 10.0099C-0.040176 9.54683 -0.0143758 9.06024 0.142118 8.58084C0.297929 8.1031 0.565303 7.69395 0.918791 7.37579C1.27364 7.05679 1.70946 6.83358 2.20167 6.72674L6.36569 5.82962C6.60522 5.77841 6.81605 5.68619 6.99541 5.55672C7.17463 5.4264 7.32754 5.25593 7.45018 5.04666L9.59362 1.3808C9.84784 0.945432 10.1962 0.601578 10.6098 0.364426C11.0243 0.127431 11.4973 0 12.0007 0C12.504 0 12.9772 0.126577 13.3915 0.364426C13.8051 0.600741 14.1528 0.945437 14.4077 1.3808L14.4064 1.38011ZM15.579 5.60655L13.4349 1.94069C13.28 1.67647 13.0741 1.47026 12.8324 1.33194C12.5922 1.1943 12.3093 1.12114 11.9992 1.12114C11.6891 1.12114 11.4061 1.1943 11.1659 1.33194C10.9242 1.47025 10.7185 1.67663 10.5634 1.94069L8.41929 5.60655C8.21581 5.95413 7.95935 6.24096 7.65289 6.462C7.34657 6.68368 6.99444 6.83884 6.60134 6.92306L2.43731 7.82019C2.13526 7.88535 1.87456 8.01703 1.66869 8.20213C1.46213 8.38792 1.30428 8.63308 1.20875 8.92587C1.11393 9.21714 1.09702 9.50823 1.15511 9.78132C1.21319 10.0542 1.34543 10.314 1.54891 10.5401L4.38802 13.7034C4.65762 14.0042 4.85171 14.3349 4.9677 14.6912C5.08456 15.049 5.12266 15.4296 5.08234 15.8284L4.65249 20.0497C4.62157 20.3548 4.66719 20.6438 4.78182 20.8985C4.89492 21.1516 5.0808 21.3762 5.32923 21.5562C5.57832 21.7362 5.85101 21.8424 6.1286 21.8717C6.4064 21.9016 6.69582 21.8555 6.97718 21.732L10.8752 20.0205C11.2447 19.8588 11.6209 19.7775 11.9987 19.7775C12.3764 19.7775 12.7526 19.8587 13.1222 20.0205L17.0202 21.732C17.3016 21.8557 17.5903 21.9018 17.8688 21.8717C18.1466 21.8424 18.4191 21.7362 18.6682 21.5562C18.9173 21.3762 19.1025 21.1508 19.2156 20.8985C19.3302 20.6438 19.3758 20.3548 19.3449 20.0497L18.9151 15.8284C18.8746 15.4296 18.9135 15.0491 19.0297 14.6912C19.1466 14.3348 19.3398 14.0034 19.6094 13.7034L22.4485 10.5401C22.652 10.3133 22.7842 10.0542 22.8423 9.78132C22.8995 9.50842 22.8835 9.21646 22.7886 8.92587C22.6931 8.63324 22.5351 8.38807 22.3287 8.20213C22.123 8.01703 21.8621 7.88535 21.5601 7.82019L17.3961 6.92306C17.0029 6.83816 16.651 6.683 16.3445 6.462C16.0382 6.24031 15.7817 5.95416 15.5781 5.60655H15.579Z" fill="black"/>
</svg>
