<svg width="17" height="24" viewBox="0 0 17 24" fill="none" xmlns="http://www.w3.org/2000/svg">
<path d="M10.6312 5.53853V5.53856C10.9738 5.54551 11.2303 5.84388 11.2242 6.18514M10.6312 5.53853L11.2242 6.18514M10.6312 5.53853H10.6282H10.6281H10.6281H10.6281H10.6281H10.6281H10.6281H10.628H10.628H10.628H10.628H10.628H10.628H10.6279H10.6279H10.6279H10.6279H10.6279H10.6279H10.6278H10.6278H10.6278H10.6278H10.6278H10.6278H10.6277H10.6277H10.6277H10.6277H10.6277H10.6276H10.6276H10.6276H10.6276H10.6276H10.6276H10.6275H10.6275H10.6275H10.6275H10.6275H10.6275H10.6274H10.6274H10.6274H10.6274H10.6274H10.6274H10.6273H10.6273H10.6273H10.6273H10.6273H10.6273H10.6272H10.6272H10.6272H10.6272H10.6272H10.6272H10.6271H10.6271H10.6271H10.6271H10.6271H10.627H10.627H10.627H10.627H10.627H10.627H10.6269H10.6269H10.6269H10.6269H10.6269H10.6269H10.6268H10.6268H10.6268H10.6268H10.6268H10.6268H10.6267H10.6267H10.6267H10.6267H10.6267H10.6267H10.6266H10.6266H10.6266H10.6266H10.6266H10.6266H10.6265H10.6265H10.6265H10.6265H10.6265H10.6265H10.6264H10.6264H10.6264H10.6264H10.6264H10.6264H10.6263H10.6263H10.6263H10.6263H10.6263H10.6263H10.6262H10.6262H10.6262H10.6262H10.6262H10.6262H10.6261H10.6261H10.6261H10.6261H10.6261H10.6261H10.626H10.626H10.626H10.626H10.626H10.626H10.6259H10.6259H10.6259H10.6259H10.6259H10.6259H10.6258H10.6258H10.6258H10.6258H10.6258H10.6257H10.6257H10.6257H10.6257H10.6257H10.6257H10.6256H10.6256H10.6256H10.6256H10.6256H10.6256H10.6255H10.6255H10.6255H10.6255H10.6255H10.6255H10.6254H10.6254H10.6254H10.6254H10.6254H10.6254H10.6253H10.6253H10.6253H10.6253H10.6253H10.6253H10.6252H10.6252H10.6252H10.6252H10.6252H10.6252H10.6251H10.6251H10.6251H10.6251H10.6251H10.6251H10.625H10.625H10.625H10.625H10.625H10.625H10.6249H10.6249H10.6249H10.6249H10.6249H10.6249H10.6248H10.6248H10.6248H10.6248H10.6248H10.6248H10.6247H10.6247H10.6247H10.6247H10.6247H10.6247H10.6246H10.6246H10.6246H10.6246H10.6246H10.6246H10.6245H10.6245H10.6245H10.6245H10.6245H10.6245H10.6244H10.6244H10.6244H10.6244H10.6244H10.6244H10.6243H10.6243H10.6243H10.6243H10.6243H10.6243H10.6242H10.6242H10.6242H10.6242H10.6242H10.6242H10.6241H10.6241H10.6241H10.6241H10.6241H10.6241H10.624H10.624H10.624H10.624H10.624H10.624H10.6239H10.6239H10.6239H10.6239H10.6239H10.6239H10.6238H10.6238H10.6238H10.6238H10.6238H10.6238H10.6237H10.6237H10.6237H10.6237H10.6237H10.6237H10.6236H10.6236H10.6236H10.6236H10.6236H10.6236H10.6235H10.6235H10.6235H10.6235H10.6235H10.6235H10.6234H10.6234H10.6234H10.6234H10.6234H10.6234H10.6233H10.6233H10.6233H10.6233H10.6233H10.6233H10.6232H10.6232H10.6232H10.6232H10.6232H10.6232H10.6231H10.6231H10.6231H10.6231H10.6231H10.6231H10.623H10.623H10.623H10.623H10.623H10.623H10.6229H10.6229H10.6229H10.6229H10.6229H10.6229H10.6228H10.6228H10.6228H10.6228H10.6228H10.6228H10.6227H10.6227H10.6227H10.6227H10.6227H10.6227H10.6226H10.6226H10.6226H10.6226H10.6226H10.6226H10.6225H10.6225H10.6225H10.6225H10.6225H10.6225H10.6224H10.6224H10.6224H10.6224H10.6224H10.6224H10.6223H10.6223H10.6223H10.6223H10.6223H10.6223H10.6222H10.6222H10.6222H10.6222H10.6222H10.6222H10.6221H10.6221H10.6221H10.6221H10.6221H10.6221H10.622H10.622H10.622H10.622H10.622H10.622H10.6219H10.6219H10.6219H10.6219H10.6219H10.6219H10.6218H10.6218H10.6218H10.6218H10.6218H10.6218H10.6217H10.6217H10.6217H10.6217H10.6217H10.6217H10.6216H10.6216H10.6216H10.6216H10.6216H10.6216H10.6215H10.6215H10.6215H10.6215H10.6215H10.6215H10.6214H10.6214H10.6214H10.6214H10.6214H10.6214H10.6213H10.6213H10.6213H10.6213H10.6213H10.6213H10.6212H10.6212H10.6212H10.6212H10.6212H10.6212H10.6211H10.6211H10.6211H10.6211H10.6211H10.6211H10.621H10.621H10.621H10.621H10.621H10.6209H10.6209H10.6209H10.6209H10.6209H10.6209H10.6208H10.6208H10.6208H10.6208H10.6208H10.6208H10.6207H10.6207H10.6207H10.6207H10.6207H10.6207H10.6206H10.6206H10.6206H10.6206H10.6206H10.6206H10.6205H10.6205H10.6205H10.6205H10.6205H10.6205H10.6204H10.6204H10.6204H10.6204H10.6204H10.6204H10.6203H10.6203H10.6203H10.6203H10.6203H10.6203H10.6202H10.6202H10.6202H10.6202H10.6202H10.6201H10.6201H10.6201H10.6201H10.6201H10.6201H10.62H10.62H10.62H10.62H10.62H10.62H10.6199H10.6199H10.6199H10.6199H10.6199H10.6199H10.6198H10.6198H10.6198H10.6198H10.6198H10.6198H10.6197H10.6197H10.6197H10.6197H10.6197H10.6197H10.6196H10.6196H10.6196H10.6196H10.6196H10.6195H10.6195C10.2821 5.53853 10.0211 5.82416 10.0153 6.16191C10.0153 6.16192 10.0153 6.16193 10.0153 6.16195L9.78808 19.2028M10.6312 5.53853L10.997 19.226M11.2242 6.18514L10.997 19.226M11.2242 6.18514L10.997 19.226M10.997 19.226C10.9912 19.5638 10.7302 19.8495 10.3927 19.8495H10.3927H10.3927H10.3927H10.3927H10.3927H10.3927H10.3926H10.3926H10.3926H10.3926H10.3926H10.3926H10.3925H10.3925H10.3925H10.3925H10.3925H10.3925H10.3924H10.3924H10.3924H10.3924H10.3924H10.3924H10.3923H10.3923H10.3923H10.3923H10.3923H10.3923H10.3923H10.3922H10.3922H10.3922H10.3922H10.3922H10.3922H10.3921H10.3921H10.3921H10.3921H10.3921H10.3921H10.392H10.392H10.392H10.392H10.392H10.392H10.3919H10.3919H10.3919H10.3919H10.3919H10.3919H10.3918H10.3918H10.3918H10.3918H10.3918H10.3918H10.3917H10.3917H10.3917H10.3917H10.3917H10.3917H10.3917H10.3916H10.3916H10.3916H10.3916H10.3916H10.3916H10.3915H10.3915H10.3915H10.3915H10.3915H10.3915H10.3914H10.3914H10.3914H10.3914H10.3914H10.3914H10.3913H10.3913H10.3913H10.3913H10.3913H10.3913H10.3912H10.3912H10.3912H10.3912H10.3912H10.3912H10.3911H10.3911H10.3911H10.3911H10.3911H10.3911H10.391H10.391H10.391H10.391H10.391H10.391H10.3909H10.3909H10.3909H10.3909H10.3909H10.3909H10.3908H10.3908H10.3908H10.3908H10.3908H10.3908H10.3907H10.3907H10.3907H10.3907H10.3907H10.3907H10.3906H10.3906H10.3906H10.3906H10.3906H10.3906H10.3905H10.3905H10.3905H10.3905H10.3905H10.3905H10.3904H10.3904H10.3904H10.3904H10.3904H10.3904H10.3904H10.3903H10.3903H10.3903H10.3903H10.3903H10.3903H10.3902H10.3902H10.3902H10.3902H10.3902H10.3902H10.3901H10.3901H10.3901H10.3901H10.3901H10.39H10.39H10.39H10.39H10.39H10.39H10.3899H10.3899H10.3899H10.3899H10.3899H10.3899H10.3898H10.3898H10.3898H10.3898H10.3898H10.3898H10.3897H10.3897H10.3897H10.3897H10.3897H10.3897H10.3896H10.3896H10.3896H10.3896H10.3896H10.3896H10.3895H10.3895H10.3895H10.3895H10.3895H10.3895H10.3894H10.3894H10.3894H10.3894H10.3894H10.3894H10.3893H10.3893H10.3893H10.3893H10.3893H10.3893H10.3892H10.3892H10.3892H10.3892H10.3892H10.3892H10.3891H10.3891H10.3891H10.3891H10.3891H10.3891H10.389H10.389H10.389H10.389H10.389H10.389H10.3889H10.3889H10.3889H10.3889H10.3889H10.3889H10.3888H10.3888H10.3888H10.3888H10.3888H10.3888H10.3887H10.3887H10.3887H10.3887H10.3887H10.3887H10.3886H10.3886H10.3886H10.3886H10.3886H10.3886H10.3885H10.3885H10.3885H10.3885H10.3885H10.3884H10.3884H10.3884H10.3884H10.3884H10.3884H10.3883H10.3883H10.3883H10.3883H10.3883H10.3883H10.3882H10.3882H10.3882H10.3882H10.3882H10.3882H10.3881H10.3881H10.3881H10.3881H10.3881H10.3881H10.388H10.388H10.388H10.388H10.388H10.388H10.3879H10.3879H10.3879H10.3879H10.3879H10.3879H10.3878H10.3878H10.3878H10.3878H10.3878H10.3878H10.3877H10.3877H10.3877H10.3877H10.3877H10.3876H10.3876H10.3876H10.3876H10.3876H10.3876H10.3875H10.3875H10.3875H10.3875H10.3875H10.3875H10.3874H10.3874H10.3874H10.3874H10.3874H10.3874H10.3873H10.3873H10.3873H10.3873H10.3873H10.3873H10.3872H10.3872H10.3872H10.3872H10.3872H10.3872H10.3871H10.3871H10.3871H10.3871H10.3871H10.387H10.387H10.387H10.387H10.387H10.387H10.3869H10.3869H10.3869H10.3869H10.3869H10.3869H10.3868H10.3868H10.3868H10.3868H10.3868H10.3868H10.3867H10.3867H10.3867H10.3867H10.3867H10.3867H10.3866H10.3866H10.3866H10.3866H10.3866H10.3865H10.3865H10.3865H10.3865H10.3865H10.3865H10.3864H10.3864H10.3864H10.3864H10.3864H10.3864H10.3863H10.3863H10.3863H10.3863H10.3863H10.3863H10.3862H10.3862H10.3862H10.3862H10.3862H10.3862H10.3861H10.3861H10.3861H10.3861H10.3861H10.3861H10.386H10.386H10.386H10.386H10.386H10.3859H10.3859H10.3859H10.3859H10.3859H10.3859H10.3858H10.3858H10.3858H10.3858H10.3858H10.3858H10.3857H10.3857H10.3857H10.3857H10.3857H10.3857H10.3856H10.3856H10.3856H10.3856H10.3856H10.3855H10.3855H10.3855H10.3855H10.3855H10.3855H10.3854H10.3854H10.3854H10.3854H10.3854H10.3854H10.3853H10.3853H10.3853H10.3853H10.3853H10.3853H10.3852H10.3852H10.3852H10.3852H10.3852H10.3852H10.3851H10.3851H10.3851H10.3851H10.3851H10.385H10.385H10.385H10.385H10.385H10.385H10.3849H10.3849H10.3849H10.3849H10.3849H10.3849H10.3848H10.3848H10.3848H10.3848H10.3848H10.3848H10.3847H10.3847H10.3847H10.3847H10.3847H10.3847H10.3846H10.3846H10.3846H10.3846H10.3846H10.3845H10.3845H10.3845H10.3845H10.3845H10.3845H10.3844H10.3844H10.3844H10.3844H10.3844H10.3844H10.3843H10.3843H10.3843H10.3843H10.3843H10.3843H10.3842H10.3842H10.3842H10.3842H10.3842H10.3841H10.3841H10.3841H10.3811V19.8494C10.0385 19.8425 9.78199 19.5441 9.78808 19.2028M10.997 19.226L10.997 19.2261L10.847 19.2235L10.997 19.226ZM9.78808 19.2028L9.93805 19.2055L9.78808 19.2029L9.78808 19.2028ZM12.47 3.11399H16.0066H12.47ZM12.47 3.11399L12.1141 1.28081C12.1141 1.2808 12.1141 1.28079 12.1141 1.28077C12.058 0.991875 11.8157 0.772852 11.5219 0.772852H5.94099C5.6472 0.772852 5.40483 0.991894 5.34881 1.28081L4.99291 3.11399H1.45447C1.11173 3.11399 0.85 3.40773 0.85 3.74894C0.85 4.09016 1.11173 4.3839 1.45447 4.3839H5.48561H5.48562H5.48562H5.48563H5.48563H5.48563H5.48564H5.48564H5.48565H5.48565H5.48565H5.48566H5.48566H5.48567H5.48567H5.48567H5.48568H5.48568H5.48569H5.48569H5.48569H5.4857H5.4857H5.48571H5.48571H5.48571H5.48572H5.48572H5.48573H5.48573H5.48573H5.48574H5.48574H5.48575H5.48575H5.48575H5.48576H5.48576H5.48577H5.48577H5.48577H5.48578H5.48578H5.48579H5.48579H5.4858H5.4858H5.4858H5.48581H5.48581H5.48582H5.48582H5.48583H5.48583H5.48583H5.48584H5.48584H5.48585H5.48585H5.48586H5.48586H5.48587H5.48587H5.48588H5.48588H5.48588H5.48589H5.48589H5.4859H5.4859H5.4859H5.48591H5.48591H5.48592H5.48592H5.48592H5.48593H5.48593H5.48594H5.48594H5.48594H5.48595H5.48595H5.48595H5.48596H5.48596H5.48597H5.48597H5.48597H5.48598H5.48598H5.48599H5.48599H5.48599H5.486H5.486H5.48601H5.48601H5.48601H5.48602H5.48602H5.48602H5.48603H5.48603H5.48604H5.48604H5.48604H5.48605H5.48605H5.48606H5.48606H5.48606H5.48607H11.9745H11.9745H11.9745H11.9746H11.9746H11.9746H11.9746H11.9746H11.9746H11.9746H11.9746H11.9746H11.9746H11.9746H11.9746H11.9747H11.9747H11.9747H11.9747H11.9747H11.9747H11.9747H11.9747H11.9747H11.9747H11.9747H11.9747H11.9747H11.9748H11.9748H11.9748H11.9748H11.9748H11.9748H11.9748H11.9748H11.9748H11.9748H11.9748H11.9748H11.9749H11.9749H11.9749H11.9749H11.9749H11.9749H11.9749H11.9749H11.9749H11.9749H11.9749H11.9749H11.9749H11.975H11.975H11.975H11.975H11.975H11.975H11.975H11.975H11.975H11.975H11.975H11.975H11.975H11.9751H11.9751H11.9751H11.9751H11.9751H11.9751H11.9751H11.9751H11.9751H11.9751H11.9751H11.9751H11.9752H11.9752H11.9752H11.9752H11.9752H11.9752H11.9752H11.9752H11.9752H11.9752H11.9752H11.9752H11.9752H11.9753H11.9753H11.9753H11.9753H11.9753H11.9753H11.9753H11.9753H11.9753H11.9753H11.9753H11.9753H11.9754H11.9754H11.9754H11.9754H11.9754H11.9754H11.9754H11.9754H11.9754H11.9754H11.9754H11.9754H11.9754H11.9755H11.9755H11.9755H11.9755H11.9755H11.9755H11.9755H11.9755H11.9755H11.9755H11.9755H11.9755H11.9756H11.9756H11.9756H11.9756H11.9756H11.9756H11.9756H11.9756H11.9756H11.9756H11.9756H11.9756H11.9756H11.9757H11.9757H11.9757H11.9757H11.9757H11.9757H11.9757H11.9757H11.9757H11.9757H11.9757H11.9757H11.9758H11.9758H11.9758H11.9758H11.9758H11.9758H11.9758H11.9758H11.9758H11.9758H11.9758H11.9758H11.9758H11.9759H11.9759H11.9759H11.9759H11.9759H11.9759H11.9759H11.9759H11.9759H11.9759H11.9759H11.9759H11.976H11.976H11.976H11.976H11.976H11.976H11.976H11.976H11.976H11.976H11.976H11.976H11.9761H11.9761H11.9761H11.9761H11.9761H11.9761H11.9761H11.9761H11.9761H11.9761H11.9761H11.9761H11.9761H11.9762H11.9762H11.9762H11.9762H11.9762H11.9762H11.9762H11.9762H11.9762H11.9762H11.9762H11.9762H11.9763H11.9763H11.9763H11.9763H11.9763H11.9763H11.9763H11.9763H11.9763H11.9763H11.9763H11.9764H11.9764H11.9764H11.9764H11.9764H11.9764H11.9764H11.9764H11.9764H11.9764H11.9764H11.9765H11.9765H11.9765H11.9765H11.9765H11.9765H11.9765H11.9765H11.9765H11.9765H11.9765H11.9765H11.9766H11.9766H11.9766H11.9766H11.9766H11.9766H11.9766H11.9766H11.9766H11.9766H11.9766H11.9766H11.9766H11.9767H11.9767H11.9767H11.9767H11.9767H11.9767H11.9767H11.9767H11.9767H11.9767H11.9767H11.9767H11.9767H11.9768H11.9768H11.9768H11.9768H11.9768H11.9768H11.9768H11.9768H11.9768H11.9768H11.9768H11.9768H11.9769H11.9769H11.9769H11.9769H11.9769H11.9769H11.9769H11.9769H11.9769H11.9769H11.9769H11.9769H11.9769H11.977H11.977H11.977H11.977H11.977H11.977H11.977H11.977H11.977H11.977L12.47 3.11399ZM7.07808 19.8495V19.8495L7.08112 19.8494C7.42352 19.8425 7.67991 19.5444 7.67412 19.203L7.67412 19.2029L7.44688 6.16191L7.44688 6.16185C7.44087 5.82488 7.1759 5.52386 6.82902 5.53885C6.4876 5.5469 6.23221 5.84452 6.23799 6.18525L6.23799 6.18532L6.46522 19.2263L6.46522 19.2264C6.47131 19.5638 6.73223 19.8495 7.06944 19.8495H7.06946H7.06948H7.06949H7.06951H7.06953H7.06954H7.06956H7.06958H7.0696H7.06961H7.06963H7.06965H7.06967H7.06968H7.0697H7.06972H7.06973H7.06975H7.06977H7.06979H7.0698H7.06982H7.06984H7.06985H7.06987H7.06989H7.06991H7.06992H7.06994H7.06996H7.06997H7.06999H7.07001H7.07003H7.07004H7.07006H7.07008H7.07009H7.07011H7.07013H7.07015H7.07016H7.07018H7.0702H7.07021H7.07023H7.07025H7.07027H7.07028H7.0703H7.07032H7.07033H7.07035H7.07037H7.07039H7.0704H7.07042H7.07044H7.07045H7.07047H7.07049H7.0705H7.07052H7.07054H7.07056H7.07057H7.07059H7.07061H7.07062H7.07064H7.07066H7.07067H7.07069H7.07071H7.07073H7.07074H7.07076H7.07078H7.07079H7.07081H7.07083H7.07084H7.07086H7.07088H7.0709H7.07091H7.07093H7.07095H7.07096H7.07098H7.071H7.07101H7.07103H7.07105H7.07106H7.07108H7.0711H7.07112H7.07113H7.07115H7.07117H7.07118H7.0712H7.07122H7.07123H7.07125H7.07127H7.07128H7.0713H7.07132H7.07133H7.07135H7.07137H7.07138H7.0714H7.07142H7.07144H7.07145H7.07147H7.07149H7.0715H7.07152H7.07154H7.07155H7.07157H7.07159H7.0716H7.07162H7.07164H7.07165H7.07167H7.07169H7.0717H7.07172H7.07174H7.07175H7.07177H7.07179H7.07181H7.07182H7.07184H7.07186H7.07187H7.07189H7.07191H7.07192H7.07194H7.07196H7.07197H7.07199H7.07201H7.07202H7.07204H7.07206H7.07207H7.07209H7.07211H7.07212H7.07214H7.07216H7.07217H7.07219H7.07221H7.07222H7.07224H7.07226H7.07227H7.07229H7.07231H7.07232H7.07234H7.07236H7.07237H7.07239H7.07241H7.07242H7.07244H7.07246H7.07247H7.07249H7.07251H7.07253H7.07254H7.07256H7.07258H7.07259H7.07261H7.07263H7.07264H7.07266H7.07268H7.07269H7.07271H7.07273H7.07274H7.07276H7.07278H7.07279H7.07281H7.07283H7.07284H7.07286H7.07288H7.07289H7.07291H7.07293H7.07294H7.07296H7.07298H7.07299H7.07301H7.07303H7.07304H7.07306H7.07308H7.07309H7.07311H7.07313H7.07314H7.07316H7.07318H7.07319H7.07321H7.07323H7.07324H7.07326H7.07328H7.07329H7.07331H7.07333H7.07334H7.07336H7.07338H7.07339H7.07341H7.07343H7.07344H7.07346H7.07348H7.07349H7.07351H7.07353H7.07354H7.07356H7.07358H7.07359H7.07361H7.07363H7.07364H7.07366H7.07368H7.07369H7.07371H7.07372H7.07374H7.07376H7.07377H7.07379H7.07381H7.07382H7.07384H7.07386H7.07387H7.07389H7.07391H7.07392H7.07394H7.07396H7.07397H7.07399H7.07401H7.07402H7.07404H7.07406H7.07407H7.07409H7.07411H7.07412H7.07414H7.07416H7.07417H7.07419H7.07421H7.07422H7.07424H7.07426H7.07427H7.07429H7.07431H7.07432H7.07434H7.07436H7.07437H7.07439H7.07441H7.07442H7.07444H7.07446H7.07447H7.07449H7.07451H7.07452H7.07454H7.07456H7.07457H7.07459H7.07461H7.07462H7.07464H7.07466H7.07467H7.07469H7.07471H7.07472H7.07474H7.07476H7.07477H7.07479H7.07481H7.07482H7.07484H7.07486H7.07487H7.07489H7.07491H7.07492H7.07494H7.07496H7.07497H7.07499H7.07501H7.07502H7.07504H7.07506H7.07507H7.07509H7.07511H7.07512H7.07514H7.07516H7.07518H7.07519H7.07521H7.07523H7.07524H7.07526H7.07528H7.07529H7.07531H7.07533H7.07534H7.07536H7.07538H7.07539H7.07541H7.07543H7.07544H7.07546H7.07548H7.07549H7.07551H7.07553H7.07554H7.07556H7.07558H7.07559H7.07561H7.07563H7.07564H7.07566H7.07568H7.07569H7.07571H7.07573H7.07574H7.07576H7.07578H7.0758H7.07581H7.07583H7.07585H7.07586H7.07588H7.0759H7.07591H7.07593H7.07595H7.07596H7.07598H7.076H7.07601H7.07603H7.07605H7.07606H7.07608H7.0761H7.07611H7.07613H7.07615H7.07617H7.07618H7.0762H7.07622H7.07623H7.07625H7.07627H7.07628H7.0763H7.07632H7.07633H7.07635H7.07637H7.07638H7.0764H7.07642H7.07644H7.07645H7.07647H7.07649H7.0765H7.07652H7.07654H7.07655H7.07657H7.07659H7.0766H7.07662H7.07664H7.07666H7.07667H7.07669H7.07671H7.07672H7.07674H7.07676H7.07677H7.07679H7.07681H7.07682H7.07684H7.07686H7.07688H7.07689H7.07691H7.07693H7.07694H7.07696H7.07698H7.07699H7.07701H7.07703H7.07705H7.07706H7.07708H7.0771H7.07711H7.07713H7.07715H7.07717H7.07718H7.0772H7.07722H7.07723H7.07725H7.07727H7.07728H7.0773H7.07732H7.07734H7.07735H7.07737H7.07739H7.0774H7.07742H7.07744H7.07746H7.07747H7.07749H7.07751H7.07752H7.07754H7.07756H7.07758H7.07759H7.07761H7.07763H7.07764H7.07766H7.07768H7.0777H7.07771H7.07773H7.07775H7.07776H7.07778H7.0778H7.07782H7.07783H7.07785H7.07787H7.07789H7.0779H7.07792H7.07794H7.07795H7.07797H7.07799H7.07801H7.07802H7.07804H7.07806H7.07808ZM6.38745 6.18271L6.38744 6.18271L6.38745 6.18271ZM14.8621 5.53886L14.8621 5.53884L14.8597 5.5388C14.5096 5.5326 14.2485 5.81168 14.2383 6.15345C14.2383 6.15347 14.2383 6.15349 14.2383 6.15352L14.1735 8.29817L14.1735 8.29824C14.1634 8.63914 14.4156 8.94126 14.7581 8.95285L14.7581 8.95293H14.7632L14.7669 8.95301L14.7779 8.95318C15.1117 8.95318 15.3717 8.67299 15.3819 8.33828V8.33826L15.4466 6.19354L15.4466 6.19346C15.4568 5.85252 15.2043 5.55045 14.8621 5.53886ZM14.7423 9.50412L14.7423 9.50403H14.7373L14.7335 9.50396L14.7225 9.50379C14.3887 9.50379 14.1287 9.78397 14.1185 10.1187V10.1187L13.7834 21.2364L13.7833 21.2364V21.2409C13.7833 21.6453 13.4774 21.9573 13.1227 21.9573H4.34035C3.98607 21.9573 3.67841 21.6469 3.67821 21.2251H3.67828L3.67815 21.2206L3.22368 6.15297L3.22367 6.15291C3.21322 5.81092 2.94742 5.53078 2.60169 5.53833L2.60169 5.53831L2.59974 5.53838C2.2575 5.55029 2.00519 5.85195 2.01533 6.19298L2.01533 6.19305L2.4695 21.2427C2.47068 22.3278 3.30029 23.2267 4.34035 23.2267H13.1227C14.1614 23.2267 14.991 22.3286 14.992 21.2582L15.3267 10.1581L15.3267 10.158C15.3368 9.81773 15.0845 9.51571 14.7423 9.50412Z" fill="#FB0067" stroke="#FB0067" stroke-width="0.3"/>
</svg>
