<svg width="32" height="24" viewBox="0 0 32 24" fill="none" xmlns="http://www.w3.org/2000/svg">
<path d="M17.6312 5.53853L17.6312 5.53856C17.9738 5.54551 18.2303 5.84384 18.2242 6.18508C18.2242 6.1851 18.2242 6.18512 18.2242 6.18514M17.6312 5.53853L18.0742 6.18246L18.2242 6.18514M17.6312 5.53853H17.6282H17.6281H17.6281H17.6281H17.6281H17.6281H17.6281H17.628H17.628H17.628H17.628H17.628H17.628H17.6279H17.6279H17.6279H17.6279H17.6279H17.6279H17.6278H17.6278H17.6278H17.6278H17.6278H17.6278H17.6277H17.6277H17.6277H17.6277H17.6277H17.6276H17.6276H17.6276H17.6276H17.6276H17.6276H17.6275H17.6275H17.6275H17.6275H17.6275H17.6275H17.6274H17.6274H17.6274H17.6274H17.6274H17.6274H17.6273H17.6273H17.6273H17.6273H17.6273H17.6273H17.6272H17.6272H17.6272H17.6272H17.6272H17.6272H17.6271H17.6271H17.6271H17.6271H17.6271H17.6271H17.627H17.627H17.627H17.627H17.627H17.6269H17.6269H17.6269H17.6269H17.6269H17.6269H17.6268H17.6268H17.6268H17.6268H17.6268H17.6268H17.6267H17.6267H17.6267H17.6267H17.6267H17.6267H17.6266H17.6266H17.6266H17.6266H17.6266H17.6266H17.6265H17.6265H17.6265H17.6265H17.6265H17.6265H17.6264H17.6264H17.6264H17.6264H17.6264H17.6264H17.6263H17.6263H17.6263H17.6263H17.6263H17.6263H17.6262H17.6262H17.6262H17.6262H17.6262H17.6262H17.6261H17.6261H17.6261H17.6261H17.6261H17.6261H17.626H17.626H17.626H17.626H17.626H17.626H17.6259H17.6259H17.6259H17.6259H17.6259H17.6259H17.6258H17.6258H17.6258H17.6258H17.6258H17.6257H17.6257H17.6257H17.6257H17.6257H17.6257H17.6256H17.6256H17.6256H17.6256H17.6256H17.6256H17.6255H17.6255H17.6255H17.6255H17.6255H17.6255H17.6254H17.6254H17.6254H17.6254H17.6254H17.6254H17.6253H17.6253H17.6253H17.6253H17.6253H17.6253H17.6252H17.6252H17.6252H17.6252H17.6252H17.6252H17.6251H17.6251H17.6251H17.6251H17.6251H17.6251H17.625H17.625H17.625H17.625H17.625H17.625H17.6249H17.6249H17.6249H17.6249H17.6249H17.6249H17.6248H17.6248H17.6248H17.6248H17.6248H17.6248H17.6247H17.6247H17.6247H17.6247H17.6247H17.6247H17.6246H17.6246H17.6246H17.6246H17.6246H17.6246H17.6245H17.6245H17.6245H17.6245H17.6245H17.6245H17.6244H17.6244H17.6244H17.6244H17.6244H17.6244H17.6243H17.6243H17.6243H17.6243H17.6243H17.6243H17.6242H17.6242H17.6242H17.6242H17.6242H17.6242H17.6241H17.6241H17.6241H17.6241H17.6241H17.6241H17.624H17.624H17.624H17.624H17.624H17.624H17.6239H17.6239H17.6239H17.6239H17.6239H17.6239H17.6238H17.6238H17.6238H17.6238H17.6238H17.6238H17.6237H17.6237H17.6237H17.6237H17.6237H17.6237H17.6236H17.6236H17.6236H17.6236H17.6236H17.6236H17.6235H17.6235H17.6235H17.6235H17.6235H17.6235H17.6234H17.6234H17.6234H17.6234H17.6234H17.6234H17.6233H17.6233H17.6233H17.6233H17.6233H17.6233H17.6232H17.6232H17.6232H17.6232H17.6232H17.6232H17.6231H17.6231H17.6231H17.6231H17.6231H17.6231H17.623H17.623H17.623H17.623H17.623H17.623H17.6229H17.6229H17.6229H17.6229H17.6229H17.6229H17.6228H17.6228H17.6228H17.6228H17.6228H17.6228H17.6227H17.6227H17.6227H17.6227H17.6227H17.6227H17.6226H17.6226H17.6226H17.6226H17.6226H17.6226H17.6225H17.6225H17.6225H17.6225H17.6225H17.6225H17.6224H17.6224H17.6224H17.6224H17.6224H17.6224H17.6223H17.6223H17.6223H17.6223H17.6223H17.6223H17.6222H17.6222H17.6222H17.6222H17.6222H17.6222H17.6221H17.6221H17.6221H17.6221H17.6221H17.6221H17.622H17.622H17.622H17.622H17.622H17.622H17.6219H17.6219H17.6219H17.6219H17.6219H17.6219H17.6218H17.6218H17.6218H17.6218H17.6218H17.6218H17.6217H17.6217H17.6217H17.6217H17.6217H17.6217H17.6216H17.6216H17.6216H17.6216H17.6216H17.6216H17.6215H17.6215H17.6215H17.6215H17.6215H17.6215H17.6214H17.6214H17.6214H17.6214H17.6214H17.6214H17.6213H17.6213H17.6213H17.6213H17.6213H17.6213H17.6212H17.6212H17.6212H17.6212H17.6212H17.6212H17.6211H17.6211H17.6211H17.6211H17.6211H17.6211H17.621H17.621H17.621H17.621H17.621H17.6209H17.6209H17.6209H17.6209H17.6209H17.6209H17.6208H17.6208H17.6208H17.6208H17.6208H17.6208H17.6207H17.6207H17.6207H17.6207H17.6207H17.6207H17.6206H17.6206H17.6206H17.6206H17.6206H17.6206H17.6205H17.6205H17.6205H17.6205H17.6205H17.6205H17.6204H17.6204H17.6204H17.6204H17.6204H17.6204H17.6203H17.6203H17.6203H17.6203H17.6203H17.6203H17.6202H17.6202H17.6202H17.6202H17.6202H17.6201H17.6201H17.6201H17.6201H17.6201H17.6201H17.62H17.62H17.62H17.62H17.62H17.62H17.6199H17.6199H17.6199H17.6199H17.6199H17.6199H17.6198H17.6198H17.6198H17.6198H17.6198H17.6198H17.6197H17.6197H17.6197H17.6197H17.6197H17.6197H17.6196H17.6196H17.6196H17.6196H17.6196H17.6195H17.6195C17.2821 5.53853 17.0211 5.82416 17.0153 6.16191L17.6312 5.53853ZM18.2242 6.18514L17.997 19.226L18.2242 6.18514ZM16.7881 19.2029C16.7881 19.2029 16.7881 19.2029 16.7881 19.2029C16.782 19.5441 17.0385 19.8425 17.3811 19.8494L17.3811 19.8495H17.3841H17.3841H17.3841H17.3842H17.3842H17.3842H17.3842H17.3842H17.3843H17.3843H17.3843H17.3843H17.3843H17.3843H17.3844H17.3844H17.3844H17.3844H17.3844H17.3844H17.3845H17.3845H17.3845H17.3845H17.3845H17.3845H17.3846H17.3846H17.3846H17.3846H17.3846H17.3847H17.3847H17.3847H17.3847H17.3847H17.3847H17.3848H17.3848H17.3848H17.3848H17.3848H17.3848H17.3849H17.3849H17.3849H17.3849H17.3849H17.3849H17.385H17.385H17.385H17.385H17.385H17.385H17.3851H17.3851H17.3851H17.3851H17.3851H17.3852H17.3852H17.3852H17.3852H17.3852H17.3852H17.3853H17.3853H17.3853H17.3853H17.3853H17.3853H17.3854H17.3854H17.3854H17.3854H17.3854H17.3854H17.3855H17.3855H17.3855H17.3855H17.3855H17.3856H17.3856H17.3856H17.3856H17.3856H17.3856H17.3857H17.3857H17.3857H17.3857H17.3857H17.3857H17.3858H17.3858H17.3858H17.3858H17.3858H17.3858H17.3859H17.3859H17.3859H17.3859H17.3859H17.3859H17.386H17.386H17.386H17.386H17.386H17.3861H17.3861H17.3861H17.3861H17.3861H17.3861H17.3862H17.3862H17.3862H17.3862H17.3862H17.3862H17.3863H17.3863H17.3863H17.3863H17.3863H17.3863H17.3864H17.3864H17.3864H17.3864H17.3864H17.3864H17.3865H17.3865H17.3865H17.3865H17.3865H17.3865H17.3866H17.3866H17.3866H17.3866H17.3866H17.3867H17.3867H17.3867H17.3867H17.3867H17.3867H17.3868H17.3868H17.3868H17.3868H17.3868H17.3868H17.3869H17.3869H17.3869H17.3869H17.3869H17.3869H17.387H17.387H17.387H17.387H17.387H17.387H17.3871H17.3871H17.3871H17.3871H17.3871H17.3872H17.3872H17.3872H17.3872H17.3872H17.3872H17.3873H17.3873H17.3873H17.3873H17.3873H17.3873H17.3874H17.3874H17.3874H17.3874H17.3874H17.3874H17.3875H17.3875H17.3875H17.3875H17.3875H17.3875H17.3876H17.3876H17.3876H17.3876H17.3876H17.3876H17.3877H17.3877H17.3877H17.3877H17.3877H17.3878H17.3878H17.3878H17.3878H17.3878H17.3878H17.3879H17.3879H17.3879H17.3879H17.3879H17.3879H17.388H17.388H17.388H17.388H17.388H17.388H17.3881H17.3881H17.3881H17.3881H17.3881H17.3881H17.3882H17.3882H17.3882H17.3882H17.3882H17.3882H17.3883H17.3883H17.3883H17.3883H17.3883H17.3883H17.3884H17.3884H17.3884H17.3884H17.3884H17.3884H17.3885H17.3885H17.3885H17.3885H17.3885H17.3886H17.3886H17.3886H17.3886H17.3886H17.3886H17.3887H17.3887H17.3887H17.3887H17.3887H17.3887H17.3888H17.3888H17.3888H17.3888H17.3888H17.3888H17.3889H17.3889H17.3889H17.3889H17.3889H17.3889H17.389H17.389H17.389H17.389H17.389H17.389H17.3891H17.3891H17.3891H17.3891H17.3891H17.3891H17.3892H17.3892H17.3892H17.3892H17.3892H17.3892H17.3893H17.3893H17.3893H17.3893H17.3893H17.3893H17.3894H17.3894H17.3894H17.3894H17.3894H17.3894H17.3895H17.3895H17.3895H17.3895H17.3895H17.3895H17.3896H17.3896H17.3896H17.3896H17.3896H17.3896H17.3897H17.3897H17.3897H17.3897H17.3897H17.3897H17.3898H17.3898H17.3898H17.3898H17.3898H17.3898H17.3899H17.3899H17.3899H17.3899H17.3899H17.3899H17.39H17.39H17.39H17.39H17.39H17.39H17.3901H17.3901H17.3901H17.3901H17.3901H17.3902H17.3902H17.3902H17.3902H17.3902H17.3902H17.3903H17.3903H17.3903H17.3903H17.3903H17.3903H17.3904H17.3904H17.3904H17.3904H17.3904H17.3904H17.3904H17.3905H17.3905H17.3905H17.3905H17.3905H17.3905H17.3906H17.3906H17.3906H17.3906H17.3906H17.3906H17.3907H17.3907H17.3907H17.3907H17.3907H17.3907H17.3908H17.3908H17.3908H17.3908H17.3908H17.3908H17.3909H17.3909H17.3909H17.3909H17.3909H17.3909H17.391H17.391H17.391H17.391H17.391H17.391H17.3911H17.3911H17.3911H17.3911H17.3911H17.3911H17.3912H17.3912H17.3912H17.3912H17.3912H17.3912H17.3913H17.3913H17.3913H17.3913H17.3913H17.3913H17.3914H17.3914H17.3914H17.3914H17.3914H17.3914H17.3915H17.3915H17.3915H17.3915H17.3915H17.3915H17.3916H17.3916H17.3916H17.3916H17.3916H17.3916H17.3917H17.3917H17.3917H17.3917H17.3917H17.3917H17.3917H17.3918H17.3918H17.3918H17.3918H17.3918H17.3918H17.3919H17.3919H17.3919H17.3919H17.3919H17.3919H17.392H17.392H17.392H17.392H17.392H17.392H17.3921H17.3921H17.3921H17.3921H17.3921H17.3921H17.3922H17.3922H17.3922H17.3922H17.3922H17.3922H17.3923H17.3923H17.3923H17.3923H17.3923H17.3923H17.3923H17.3924H17.3924H17.3924H17.3924H17.3924H17.3924H17.3925H17.3925H17.3925H17.3925H17.3925H17.3925H17.3926H17.3926H17.3926H17.3926H17.3926H17.3926H17.3927H17.3927H17.3927H17.3927H17.3927H17.3927H17.3927C17.7302 19.8495 17.9912 19.5638 17.997 19.2261L16.9381 19.2055L16.7881 19.2029ZM16.7881 19.2029L17.0153 6.16195L16.7881 19.2029ZM19.47 3.11399H23.0066H19.47ZM19.47 3.11399L19.1141 1.28081C19.058 0.991894 18.8157 0.772852 18.5219 0.772852H12.941C12.6472 0.772852 12.4048 0.991894 12.3488 1.28081L11.9929 3.11399H8.45447C8.11173 3.11399 7.85 3.40773 7.85 3.74894C7.85 4.09016 8.11173 4.3839 8.45447 4.3839H12.4856H12.4856H12.4856H12.4856H12.4856H12.4856H12.4856H12.4856H12.4856H12.4856H12.4857H12.4857H12.4857H12.4857H12.4857H12.4857H12.4857H12.4857H12.4857H12.4857H12.4857H12.4857H12.4857H12.4857H12.4857H12.4857H12.4857H12.4857H12.4857H12.4857H12.4857H12.4857H12.4857H12.4857H12.4857H12.4858H12.4858H12.4858H12.4858H12.4858H12.4858H12.4858H12.4858H12.4858H12.4858H12.4858H12.4858H12.4858H12.4858H12.4858H12.4858H12.4858H12.4858H12.4858H12.4858H12.4858H12.4858H12.4858H12.4858H12.4859H12.4859H12.4859H12.4859H12.4859H12.4859H12.4859H12.4859H12.4859H12.4859H12.4859H12.4859H12.4859H12.4859H12.4859H12.4859H12.4859H12.4859H12.4859H12.4859H12.4859H12.4859H12.4859H12.4859H12.486H12.486H12.486H12.486H12.486H12.486H12.486H12.486H12.486H12.486H12.486H12.486H12.486H12.486H12.486H12.486H12.486H12.486H12.486H12.486H12.486H12.486H12.486H12.486H12.486H12.4861H12.4861H12.4861H12.4861H12.4861H18.9745H18.9745H18.9745H18.9746H18.9746H18.9746H18.9746H18.9746H18.9746H18.9746H18.9746H18.9746H18.9746H18.9746H18.9746H18.9747H18.9747H18.9747H18.9747H18.9747H18.9747H18.9747H18.9747H18.9747H18.9747H18.9747H18.9747H18.9747H18.9748H18.9748H18.9748H18.9748H18.9748H18.9748H18.9748H18.9748H18.9748H18.9748H18.9748H18.9748H18.9749H18.9749H18.9749H18.9749H18.9749H18.9749H18.9749H18.9749H18.9749H18.9749H18.9749H18.9749H18.9749H18.975H18.975H18.975H18.975H18.975H18.975H18.975H18.975H18.975H18.975H18.975H18.975H18.975H18.9751H18.9751H18.9751H18.9751H18.9751H18.9751H18.9751H18.9751H18.9751H18.9751H18.9751H18.9751H18.9752H18.9752H18.9752H18.9752H18.9752H18.9752H18.9752H18.9752H18.9752H18.9752H18.9752H18.9752H18.9752H18.9753H18.9753H18.9753H18.9753H18.9753H18.9753H18.9753H18.9753H18.9753H18.9753H18.9753H18.9753H18.9754H18.9754H18.9754H18.9754H18.9754H18.9754H18.9754H18.9754H18.9754H18.9754H18.9754H18.9754H18.9754H18.9755H18.9755H18.9755H18.9755H18.9755H18.9755H18.9755H18.9755H18.9755H18.9755H18.9755H18.9755H18.9756H18.9756H18.9756H18.9756H18.9756H18.9756H18.9756H18.9756H18.9756H18.9756H18.9756H18.9756H18.9756H18.9757H18.9757H18.9757H18.9757H18.9757H18.9757H18.9757H18.9757H18.9757H18.9757H18.9757H18.9757H18.9758H18.9758H18.9758H18.9758H18.9758H18.9758H18.9758H18.9758H18.9758H18.9758H18.9758H18.9758H18.9758H18.9759H18.9759H18.9759H18.9759H18.9759H18.9759H18.9759H18.9759H18.9759H18.9759H18.9759H18.9759H18.976H18.976H18.976H18.976H18.976H18.976H18.976H18.976H18.976H18.976H18.976H18.976H18.9761H18.9761H18.9761H18.9761H18.9761H18.9761H18.9761H18.9761H18.9761H18.9761H18.9761H18.9761H18.9761H18.9762H18.9762H18.9762H18.9762H18.9762H18.9762H18.9762H18.9762H18.9762H18.9762H18.9762H18.9762H18.9763H18.9763H18.9763H18.9763H18.9763H18.9763H18.9763H18.9763H18.9763H18.9763H18.9763H18.9764H18.9764H18.9764H18.9764H18.9764H18.9764H18.9764H18.9764H18.9764H18.9764H18.9764H18.9765H18.9765H18.9765H18.9765H18.9765H18.9765H18.9765H18.9765H18.9765H18.9765H18.9765H18.9765H18.9766H18.9766H18.9766H18.9766H18.9766H18.9766H18.9766H18.9766H18.9766H18.9766H18.9766H18.9766H18.9766H18.9767H18.9767H18.9767H18.9767H18.9767H18.9767H18.9767H18.9767H18.9767H18.9767H18.9767H18.9767H18.9767H18.9768H18.9768H18.9768H18.9768H18.9768H18.9768H18.9768H18.9768H18.9768H18.9768H18.9768H18.9768H18.9769H18.9769H18.9769H18.9769H18.9769H18.9769H18.9769H18.9769H18.9769H18.9769H18.9769H18.9769H18.9769H18.977H18.977H18.977H18.977H18.977H18.977H18.977H18.977H18.977H18.977L19.47 3.11399ZM14.0781 19.8495V19.8495L14.0811 19.8494C14.4235 19.8425 14.6799 19.5444 14.6741 19.203L14.6741 19.2029L14.4469 6.16191L14.4469 6.16185C14.4409 5.82488 14.1759 5.52386 13.829 5.53885C13.4876 5.5469 13.2322 5.84452 13.238 6.18525L13.238 6.18532L13.4652 19.2263L13.4652 19.2264C13.4713 19.5638 13.7322 19.8495 14.0694 19.8495H14.0695H14.0695H14.0695H14.0695H14.0695H14.0695H14.0696H14.0696H14.0696H14.0696H14.0696H14.0696H14.0697H14.0697H14.0697H14.0697H14.0697H14.0698H14.0698H14.0698H14.0698H14.0698H14.0698H14.0699H14.0699H14.0699H14.0699H14.0699H14.0699H14.07H14.07H14.07H14.07H14.07H14.07H14.0701H14.0701H14.0701H14.0701H14.0701H14.0701H14.0702H14.0702H14.0702H14.0702H14.0702H14.0702H14.0703H14.0703H14.0703H14.0703H14.0703H14.0704H14.0704H14.0704H14.0704H14.0704H14.0704H14.0705H14.0705H14.0705H14.0705H14.0705H14.0705H14.0706H14.0706H14.0706H14.0706H14.0706H14.0706H14.0707H14.0707H14.0707H14.0707H14.0707H14.0707H14.0708H14.0708H14.0708H14.0708H14.0708H14.0708H14.0709H14.0709H14.0709H14.0709H14.0709H14.0709H14.071H14.071H14.071H14.071H14.071H14.071H14.0711H14.0711H14.0711H14.0711H14.0711H14.0711H14.0712H14.0712H14.0712H14.0712H14.0712H14.0713H14.0713H14.0713H14.0713H14.0713H14.0713H14.0714H14.0714H14.0714H14.0714H14.0714H14.0714H14.0715H14.0715H14.0715H14.0715H14.0715H14.0715H14.0716H14.0716H14.0716H14.0716H14.0716H14.0716H14.0717H14.0717H14.0717H14.0717H14.0717H14.0717H14.0718H14.0718H14.0718H14.0718H14.0718H14.0718H14.0719H14.0719H14.0719H14.0719H14.0719H14.0719H14.072H14.072H14.072H14.072H14.072H14.072H14.0721H14.0721H14.0721H14.0721H14.0721H14.0721H14.0722H14.0722H14.0722H14.0722H14.0722H14.0722H14.0723H14.0723H14.0723H14.0723H14.0723H14.0723H14.0724H14.0724H14.0724H14.0724H14.0724H14.0724H14.0725H14.0725H14.0725H14.0725H14.0725H14.0725H14.0726H14.0726H14.0726H14.0726H14.0726H14.0726H14.0727H14.0727H14.0727H14.0727H14.0727H14.0727H14.0728H14.0728H14.0728H14.0728H14.0728H14.0728H14.0729H14.0729H14.0729H14.0729H14.0729H14.0729H14.073H14.073H14.073H14.073H14.073H14.073H14.0731H14.0731H14.0731H14.0731H14.0731H14.0731H14.0732H14.0732H14.0732H14.0732H14.0732H14.0732H14.0733H14.0733H14.0733H14.0733H14.0733H14.0733H14.0734H14.0734H14.0734H14.0734H14.0734H14.0734H14.0735H14.0735H14.0735H14.0735H14.0735H14.0735H14.0736H14.0736H14.0736H14.0736H14.0736H14.0736H14.0737H14.0737H14.0737H14.0737H14.0737H14.0737H14.0738H14.0738H14.0738H14.0738H14.0738H14.0738H14.0739H14.0739H14.0739H14.0739H14.0739H14.0739H14.074H14.074H14.074H14.074H14.074H14.074H14.0741H14.0741H14.0741H14.0741H14.0741H14.0741H14.0742H14.0742H14.0742H14.0742H14.0742H14.0742H14.0743H14.0743H14.0743H14.0743H14.0743H14.0743H14.0744H14.0744H14.0744H14.0744H14.0744H14.0744H14.0745H14.0745H14.0745H14.0745H14.0745H14.0745H14.0746H14.0746H14.0746H14.0746H14.0746H14.0746H14.0747H14.0747H14.0747H14.0747H14.0747H14.0747H14.0748H14.0748H14.0748H14.0748H14.0748H14.0748H14.0749H14.0749H14.0749H14.0749H14.0749H14.0749H14.075H14.075H14.075H14.075H14.075H14.075H14.0751H14.0751H14.0751H14.0751H14.0751H14.0751H14.0752H14.0752H14.0752H14.0752H14.0752H14.0752H14.0753H14.0753H14.0753H14.0753H14.0753H14.0753H14.0754H14.0754H14.0754H14.0754H14.0754H14.0754H14.0755H14.0755H14.0755H14.0755H14.0755H14.0755H14.0756H14.0756H14.0756H14.0756H14.0756H14.0756H14.0757H14.0757H14.0757H14.0757H14.0757H14.0757H14.0758H14.0758H14.0758H14.0758H14.0758H14.0758H14.0759H14.0759H14.0759H14.0759H14.0759H14.0759H14.076H14.076H14.076H14.076H14.076H14.076H14.0761H14.0761H14.0761H14.0761H14.0761H14.0761H14.0762H14.0762H14.0762H14.0762H14.0762H14.0762H14.0763H14.0763H14.0763H14.0763H14.0763H14.0764H14.0764H14.0764H14.0764H14.0764H14.0764H14.0765H14.0765H14.0765H14.0765H14.0765H14.0765H14.0766H14.0766H14.0766H14.0766H14.0766H14.0766H14.0767H14.0767H14.0767H14.0767H14.0767H14.0767H14.0768H14.0768H14.0768H14.0768H14.0768H14.0768H14.0769H14.0769H14.0769H14.0769H14.0769H14.0769H14.077H14.077H14.077H14.077H14.077H14.077H14.0771H14.0771H14.0771H14.0771H14.0771H14.0771H14.0772H14.0772H14.0772H14.0772H14.0772H14.0773H14.0773H14.0773H14.0773H14.0773H14.0773H14.0774H14.0774H14.0774H14.0774H14.0774H14.0774H14.0775H14.0775H14.0775H14.0775H14.0775H14.0775H14.0776H14.0776H14.0776H14.0776H14.0776H14.0776H14.0777H14.0777H14.0777H14.0777H14.0777H14.0777H14.0778H14.0778H14.0778H14.0778H14.0778H14.0779H14.0779H14.0779H14.0779H14.0779H14.0779H14.078H14.078H14.078H14.078H14.078H14.078H14.0781H14.0781ZM21.8621 5.53886V5.53884L21.8597 5.5388C21.5096 5.5326 21.2485 5.81168 21.2383 6.15344C21.2383 6.15347 21.2383 6.15349 21.2383 6.15352L21.1735 8.29817L21.1735 8.29824C21.1634 8.63914 21.4156 8.94126 21.7581 8.95285L21.7581 8.95293H21.7632L21.7669 8.95301L21.7779 8.95318C22.1117 8.95318 22.3717 8.67299 22.3819 8.33828L22.3819 8.33826L22.4466 6.19354L22.4466 6.19346C22.4568 5.85252 22.2043 5.55045 21.8621 5.53886ZM21.7423 9.50412L21.7423 9.50403H21.7373L21.7335 9.50396L21.7225 9.50379C21.3887 9.50379 21.1287 9.78397 21.1185 10.1187L21.1185 10.1187L20.7834 21.2364L20.7833 21.2364V21.2409C20.7833 21.6453 20.4774 21.9573 20.1227 21.9573H11.3404C10.9861 21.9573 10.6784 21.6469 10.6782 21.2251H10.6783L10.6781 21.2206L10.2237 6.15297L10.2237 6.15291C10.2132 5.81092 9.94742 5.53078 9.60169 5.53833L9.60169 5.53831L9.59974 5.53838C9.2575 5.55029 9.00519 5.85195 9.01533 6.19298L9.01533 6.19305L9.4695 21.2427C9.47068 22.3278 10.3003 23.2267 11.3404 23.2267H20.1227C21.1614 23.2267 21.991 22.3286 21.992 21.2582L22.3267 10.1581L22.3267 10.158C22.3368 9.81773 22.0845 9.51571 21.7423 9.50412Z" fill="#FB0067" stroke="#FB0067" stroke-width="0.3"/>
</svg>
